<svg xmlns="http://www.w3.org/2000/svg" width="2048" height="1780"><path d="M20.689 11.51c-2.199 41.029 9.37 92.006 30.28 133.429 1.683 3.334 2.798 6.061 2.479 6.061-.32 0-2.014-1.057-3.765-2.35-2.927-2.16-26.65-18.276-29.462-20.014-.919-.568-1.221 1.085-1.221 6.688v7.442l25.118 17.335c13.815 9.534 25.852 18.4 26.75 19.701.898 1.301 4.905 6.378 8.904 11.282 4 4.904 6.958 8.916 6.573 8.916-.385 0-7.258-1.312-15.273-2.915-15.323-3.065-38.956-4.825-47.527-3.539l-4.545.681v10.917l11.25-.68c24.598-1.489 61.31 4.934 71.271 12.471 4.498 3.402 5.729 3.674 7.419 1.637 1.632-1.966-.862-6.638-5.491-10.284-3.95-3.112-14.851-16.219-14.108-16.962.262-.262 7.83 4.435 16.818 10.438 8.987 6.003 23.541 15.541 32.341 21.195s16.365 10.613 16.81 11.021c.953.871-3.29 7.345-9.734 14.852-5.575 6.495-5.973 9.925-1.653 14.245 3.631 3.631 5.769 3.679 21.444.482 14.029-2.861 16.036-2.489 17.585 3.263 1.187 4.409 5.197 8.926 8.705 9.807 3.036.762 7.03-.27 10.436-2.695 1.494-1.064 3.141-1.934 3.66-1.934.984 0 10.258 9.035 10.232 9.968-.008.292-2.82 1.597-6.25 2.899-9.017 3.424-47.892 20.787-64.235 28.69-45.867 22.18-86.585 46.914-106.5 64.692-13.484 12.037-18.935 18.527-19.542 23.269l-.467 3.651 5.254-4.989c22.159-21.038 35.979-30.299 82.712-55.423 27.675-14.878 80.848-39.665 113.274-52.801l16.731-6.779 7.769 4.732c4.273 2.603 19.469 11.864 33.769 20.581 42.546 25.936 77.837 46.352 111.5 64.502a12619.56 12619.56 0 0122.5 12.158l7 3.8-5.487 2.275c-3.018 1.251-13.464 6.189-23.214 10.972-17.41 8.542-35.841 15.705-50.921 19.79-9.4 2.546-24.304 8.309-36.878 14.26a51271.7 51271.7 0 01-18 8.514c-9.387 4.437-22.583 10.227-28 12.285-2.973 1.129-22.327 12.203-40.5 23.171-2.75 1.66-7.475 5.103-10.501 7.651-7.331 6.174-9.643 7.373-14.101 7.311-6.072-.084-6.795 1.958-2.789 7.874 2.132 3.149 4.319 5.197 5.891 5.517 1.375.28 6.55 2.556 11.5 5.059 4.95 2.502 23.85 12.075 42 21.274 30.596 15.506 45.835 22.297 56.123 25.013 3.806 1.004 4.172 1.403 4.779 5.195.979 6.122 7.507 25.88 9.876 29.889 1.138 1.925 3.957 5.3 6.265 7.5 3.159 3.01 4.377 5.068 4.926 8.317.401 2.375.983 4.064 1.293 3.755.512-.513 4.241 6.782 4.236 8.287-.001.353-8.664.682-19.25.733-18.285.087-19.848.251-31.248 3.267-13.917 3.683-19.676 5.828-31.803 11.846-34.681 17.21-61.592 54.513-59.367 82.295.644 8.044 5.759 21.331 9.877 25.657 1.653 1.736 5.907 4.436 9.453 6l6.448 2.843-.558 4.523c-1.347 10.912 5.445 24.432 15.557 30.968 9.102 5.883 16.146 8.223 23.582 7.834l6.215-.325 2.163 6.5c4.02 12.083 11.194 19.071 24.591 23.955 5.149 1.878 7.721 2.187 15.749 1.895 5.277-.193 9.594-.223 9.594-.068-.001.154-.953 3.079-2.117 6.5-1.468 4.314-2.157 8.973-2.25 15.218-.124 8.309.084 9.336 2.704 13.369l2.838 4.37-5.218 13.63c-10.153 26.523-14.145 37.831-19.635 55.631-5.46 17.704-5.56 18.247-6.054 33.057-.606 18.14 1.132 26.687 8.324 40.942 12.701 25.177 24.3 40.881 35.492 48.056 7.856 5.035 11.315 6.188 13.392 4.464.799-.663 4.487-2.654 8.196-4.426l6.743-3.22 2.683 5.672c1.475 3.12 4.544 7.395 6.82 9.5l4.138 3.829-4.401 4.563c-6.895 7.15-20.604 26.664-25.686 36.563-2.542 4.95-6.36 13.987-8.485 20.081l-3.864 11.082-8.561-5.78c-18.955-12.798-50.086-22.331-84.52-25.882-12.416-1.281-33.214-.52-41.347 1.513-3.922.98-5.206 1.021-4.923.156.211-.644 1.863-1.315 3.671-1.492 2.576-.252 3.526-.955 4.392-3.25.737-1.951 1.803-2.928 3.195-2.928 3.105 0 5.308-2.125 5.66-5.46.277-2.624.904-3.135 5.531-4.5 9.586-2.829 9.584-5.023-.008-9.79-7.336-3.645-13.472-4.213-19.287-1.783-2.677 1.119-3.604 1.178-3.897.25-.212-.669-1.205-3.917-2.206-7.217-1.58-5.206-2.145-6-4.271-6-2.05 0-2.692.777-3.926 4.75-1.205 3.881-1.9 4.75-3.8 4.75-1.278 0-2.324-.494-2.324-1.099 0-.604-.726-2.629-1.614-4.5-2.964-6.245-5.654-3.625-7.175 6.989l-.733 5.11-6.489.575c-3.569.317-7.925 1.327-9.68 2.246-3.967 2.075-12.309 12.158-12.309 14.877 0 1.867.531 1.989 7.25 1.659 6.766-.333 7.317-.204 8.25 1.935 1.203 2.757 4.947 3.912 7.042 2.173 1.249-1.036 1.92-.879 3.802.888 1.257 1.181 3.291 2.147 4.52 2.147 1.229 0 3.534.672 5.122 1.493 3.05 1.577 5.53 1.21 6.356-.942.826-2.153 5.534-2.817 7.319-1.033 1.85 1.85 1.638 2.206-1.684 2.815-51.415 9.434-73.384 18.223-109.023 43.615-16.007 11.405-36.799 27.711-43.285 33.946-7.795 7.494-16.869 18.502-24.992 30.319L0 1241.925l.011 11.288.012 11.287 3.596-6.5c12.365-22.35 17.348-28.952 35.881-47.543 20.839-20.903 40.99-35.501 68-49.26 7.494-3.817 49.289-20.579 58.098-23.3 30.608-9.454 67.313-10.427 106.534-2.824 10.499 2.035 17.111 4.435 25.162 9.131 2.637 1.538 4.99 2.796 5.231 2.796.618 0 10.315 6.33 14.419 9.413 1.895 1.423 3.132 2.587 2.75 2.587-.382 0 .222.916 1.342 2.036 1.121 1.121 1.768 2.472 1.439 3.005-.329.532.39 2.727 1.599 4.877 4.143 7.371.509 19.403-7.521 24.905-3.058 2.095-3.593 2.129-18.54 1.178-8.466-.539-15.869-1.47-16.453-2.068-.762-.783-.002-.894 2.702-.397 3.047.56 3.657.417 3.209-.751-.333-.867-1.832-1.41-3.762-1.363-2.909.071-3.238-.226-3.522-3.172-.307-3.185-.232-3.25 3.75-3.25H288v-8.5c0-7.267.242-8.5 1.667-8.5 2.376 0 .603-1.469-2-1.656-8.113-.585-14.426-3.307-13.004-5.607.927-1.5-32.624-.259-42.163 1.56-13.609 2.595-15.829 2.732-17.995 1.114-1.711-1.278-1.782-1.625-.5-2.435 1.099-.695.435-.989-2.505-1.111l-4-.165 4.5-.623c3.809-.526 4.152-.745 2.235-1.421-1.245-.44-2.006-1.218-1.691-1.728.887-1.435-5.206-1.096-9.031.502-3.44 1.437-18.579 10.331-19.513 11.464-1.068 1.295-7.002 4.175-7.03 3.413-.017-.444-.489-.02-1.05.943-.659 1.132-2.239 1.75-4.47 1.75-3.619 0-4.49-1.5-1.969-3.39 1.093-.819 1.204-1.503.424-2.61-.795-1.129-1.183-1.191-1.564-.25-.279.687-1.388 1.25-2.463 1.25-1.919 0-1.917-.041.072-2.177 2.918-3.132 1.819-3.371-3.134-.682-13.564 7.365-31.366 23.875-40.73 37.775-1.328 1.971-4.141 5.671-6.25 8.223-2.11 2.551-3.85 5.026-3.867 5.5-.018.473-1.173 1.693-2.568 2.709-2.468 1.797-2.576 1.797-3.937 0-1.298-1.713-1.403-1.72-1.432-.098-.043 2.377-1.262 2.199-3.858-.564-3.867-4.117-2.484-15.483 2.303-18.921.563-.404.625-.741.138-.75-.768-.013-13.806 11.316-20.306 17.643-2.96 2.882-8.238 11.302-12.305 19.629-1.823 3.733-3.695 7.022-4.16 7.309-.464.287-.844 1.326-.844 2.308 0 2.229-3.505 5.52-4.937 4.635-1.898-1.173-1.125-2.539 1.437-2.539 1.556 0 2.5-.567 2.5-1.5 0-1.083-1.111-1.5-4-1.5-2.889 0-4 .417-4 1.5 0 .825-.675 1.5-1.5 1.5s-1.513.563-1.528 1.25c-.015.688-1.365 3.018-3 5.178-1.635 2.161-3.017 5.086-3.072 6.5l-.099 2.572-.753-2.5c-.694-2.307-.809-2.191-1.49 1.5-.406 2.2-1.802 7.6-3.103 12-4.822 16.307-5.126 30.861-1.06 50.734 2.986 14.594 2.924 14.081 1.605 13.266-.55-.34-1.007-1.604-1.015-2.809-.013-1.822-.194-1.938-1.076-.691-.799 1.129-1.187 1.191-1.568.25-.279-.687-1.37-1.25-2.424-1.25-1.055 0-1.924.563-1.932 1.25-.012.955-.211.942-.845-.057-1.171-1.847-4.33 9.562-3.237 11.691.456.889 1.12 3.907 1.476 6.706.851 6.691 3.924 12.851 12.178 24.41 6.048 8.469 10.011 13.319 22.443 27.466 5.057 5.754 25.897 27.282 29.942 30.93 1.893 1.707 6.251 5.917 9.684 9.354 4.756 4.763 5.774 6.25 4.277 6.25-1.081 0-2.225-.675-2.541-1.5-.317-.825-.964-1.5-1.438-1.5-.473 0-.591.705-.26 1.567.331.863.04 2.617-.646 3.899s-1.078 4.107-.871 6.277c.316 3.313.105 3.874-1.316 3.502-.931-.243-1.935-1.073-2.23-1.844-.296-.77-1.259-1.401-2.141-1.401-.882 0-2.191-.562-2.909-1.25-.718-.687-2.149-1.804-3.178-2.482-1.03-.677-3.58-2.365-5.667-3.75-2.087-1.385-4.225-2.518-4.75-2.518-.526 0-.956-.675-.956-1.5 0-.842-.893-1.5-2.035-1.5-1.12 0-3.145-.727-4.5-1.615-2.269-1.487-2.465-1.487-2.465 0 0 .888.72 1.615 1.601 1.615 1.297 0 1.527.9 1.212 4.75l-.388 4.75 11.282 11.25c6.206 6.188 11.542 11.25 11.859 11.25.317 0 1.163.562 1.879 1.25s3.443 3.05 6.06 5.25c2.617 2.2 5.651 4.773 6.742 5.717 1.091.945 3.281 2.292 4.868 2.994 1.587.703 2.885 1.658 2.885 2.123 0 1.371 4.352 4.597 6.25 4.633 2.766.052 2.036 2.033-.75 2.033-2.29 0-2.5.371-2.5 4.428v4.427l6.487 3.065c3.568 1.686 7.013 3.908 7.656 4.938.728 1.165 1.895 1.683 3.089 1.371 1.456-.381 1.84-.047 1.593 1.385-.249 1.444.21 1.829 1.959 1.642 1.299-.139 2.535.411 2.866 1.275.321.836 10.769 6.509 23.217 12.606 19.957 9.774 35.268 16.015 50.133 20.432 7.293 2.167 13.431 4.504 14.45 5.501.522.512 2.012.93 3.309.93 1.297 0 2.15.338 1.896.75-.255.412.506.791 1.69.841 2.602.11 6.468.958 9.065 1.988 1.774.704 1.739.825-.5 1.687l-2.41.93 2.5 1.037 2.5 1.038-2.5.765c-1.724.527-1.942.796-.703.864 1.729.096 1.729.19 0 2.485-2.443 3.242-10.083 3.997-19.623 1.938-3.946-.852-9.649-1.762-12.674-2.024-3.025-.261-5.927-.885-6.45-1.387-.522-.502-2.097-.86-3.5-.796-1.695.077-1.963.269-.8.573 3.149.823 1.837 1.91-2.247 1.86-2.198-.027-3.998-.274-4-.549-.002-.275-1.915-.538-4.253-.584-2.338-.046-5.6-.668-7.25-1.383-1.65-.715-7.05-2.779-12-4.586-22.892-8.359-26.257-9.697-30.487-12.124-38.779-22.252-58.575-34.726-64.013-40.339-.275-.284-2.075-1.809-4-3.389-10.147-8.33-19.142-16.674-34.569-32.065-14.818-14.784-18.061-18.613-24.586-29.03-4.134-6.6-8.828-14.475-10.431-17.5-1.603-3.025-3.252-5.65-3.664-5.833-.413-.184-.75-1.196-.75-2.25 0-1.055-.45-1.917-1-1.917s-1-.675-1-1.5-.45-1.5-1-1.5c-.596 0-1 3.806-1 9.417 0 10.8 1.203 14.424 8.388 25.271 7.321 11.05 14.874 19.982 28.903 34.178 16.773 16.973 24.489 23.798 43.709 38.664 22.904 17.716 34.956 25.386 59.176 37.661 17.364 8.8 21.676 10.606 36.105 15.123 6.17 1.931 19.839 6.261 30.375 9.621 22.983 7.33 52.891 15.065 58.251 15.065 2.13 0 7.409.654 11.733 1.453 17.379 3.213 39.161 4.625 54.931 3.563 16.921-1.141 24.037-1.935 26.929-3.004 1.1-.407 4.163-1.057 6.808-1.446l4.807-.706-.635 6.32c-.349 3.476-1.237 10.82-1.973 16.32s-1.639 14.275-2.007 19.5c-.368 5.225-1.521 13.662-2.562 18.75-1.041 5.087-2.828 15.662-3.971 23.5-1.143 7.837-2.539 16.275-3.102 18.75-2.049 8.999-10.865 63.867-10.865 67.619 0 .209 49.941.381 110.981.381h110.981l.48-2.25c1.004-4.71 2.616-13.675 4.532-25.195 1.978-11.9 2.004-11.965 6.756-16.99 9.746-10.308 19.12-19.413 31.77-30.859 17.727-16.04 26.829-25.238 29.637-29.95 3.721-6.242 9.916-12.654 15.422-15.958 2.814-1.689 5.609-4.28 6.3-5.841 1.802-4.071 8.408-11.949 10.024-11.953 2.076-.006 5.299-4.198 4.773-6.21-.254-.973.886-3.623 2.545-5.913l3.006-4.15-5.059-5.059-5.059-5.06-7.205 4.944c-9.919 6.807-16.91 14.173-22.849 24.076-2.769 4.618-5.035 8.698-5.035 9.068 0 .369-1.749 2.746-3.887 5.281-2.138 2.536-4.055 5.49-4.259 6.565-.264 1.394-1.338 2.047-3.748 2.277-3.007.289-4.046-.368-9.494-6-3.489-3.607-7.502-9.115-9.342-12.823-1.773-3.575-6.067-11-9.542-16.5-6.076-9.617-6.596-10.143-13.592-13.75-7.079-3.649-7.564-3.75-18.014-3.75-10.446 0-10.894.093-16.403 3.41-8.339 5.022-14.121 10.061-19.726 17.194-6.874 8.747-8.691 9.82-14.16 8.364-5.881-1.566-7.324-3.093-10.31-10.909-5.784-15.135-9.273-30.079-10.488-44.915-.799-9.769-1.028-10.541-4.036-13.645-1.754-1.81-6.335-4.74-10.179-6.512-6.099-2.811-7.64-3.136-12.094-2.545-13.946 1.85-36.207 13.427-62.086 32.287-9.008 6.565-11.781 5.662-14.967-4.871-.939-3.102-2.4-6.217-3.248-6.92-3.718-3.086-8.425-22.625-8.425-34.976v-7.224l-3.75.636c-33.121 5.614-71.136.791-97.25-12.338-5.225-2.627-10.921-5.087-12.658-5.466-7.595-1.656-35.308-19.591-59.342-38.403-11.755-9.202-36.681-34.139-48.144-48.167-14.95-18.295-30.473-42.112-36.973-56.728a9902.97 9902.97 0 00-4.352-9.772c-2.791-6.245-7.356-20.351-9.547-29.5-3.259-13.603-3.334-37.879-.153-49.5 10.042-36.691 40.241-63.497 87.906-78.03 13.805-4.21 27.292-6.953 41.801-8.503 12.993-1.388 50.737.165 61.462 2.53 12.748 2.81 20.587 1.806 28.882-3.699l4.381-2.908 3.119 3.203c8.173 8.395 16.842 7.913 38.295-2.13 15.416-7.217 29.836-19.719 39.174-33.963l3.605-5.5.697 10.175c1.307 19.061 7.795 47.604 13.354 58.748l3.508 7.033-4.054 4.022c-2.23 2.212-3.76 3.235-3.4 2.272.359-.963 1.13-1.75 1.713-1.75.582 0 .801-.258.486-.574-1.877-1.876-11.423 7.055-22.66 21.2-2.24 2.819-5.316 5.928-6.836 6.909-6.877 4.436-23.682 19.119-32.515 28.409-8.277 8.704-22.2 26.134-28.096 35.171-2.388 3.66-.803 7.705 3.343 8.534 2.086.417 3.215 1.345 3.625 2.979.382 1.518 1.324 2.372 2.619 2.372 3.81 0 8.497 3.787 9.178 7.414.349 1.861 1.341 4.8 2.203 6.529 1.343 2.69 1.795 2.958 3.138 1.851 4.045-3.336-1.071 3.466-9.336 12.413-10.71 11.594-29.421 33.252-33.947 39.293-7.222 9.639-8.476 12.465-8.476 19.102 0 4.888.46 6.302 3.222 9.899 1.772 2.309 4.869 5.381 6.882 6.828 3.129 2.25 3.668 3.206 3.714 6.598.031 2.182.593 5.004 1.251 6.27 2.207 4.251 8.064 10.82 11.002 12.34l2.911 1.505-2.991 4.129c-2.409 3.325-2.991 5.142-2.991 9.329 0 8.264 5.404 14.221 16.156 17.812.91.304 1.97 1.984 2.354 3.733 1.142 5.202 6.983 10.659 15.897 14.854 8.983 4.227 12.593 5.549 12.593 4.61 0-.344.481-3.862 1.068-7.817 2.397-16.138 7.635-29.462 14.425-36.692 1.808-1.925 3.989-4.897 4.848-6.605 2.32-4.617 17.005-18.616 26.39-25.157 4.527-3.156 15.342-10.775 24.034-16.932 16.618-11.771 21.205-14.352 38.859-21.865 13.034-5.548 26.264-12.132 34.696-17.269 10.472-6.38 21.839-15.278 23.55-18.437 2.27-4.189 5.842-8.352 6.556-7.64 1.088 1.084-8.192 20.913-11.909 25.449-5.197 6.343-8.686 8.688-20.017 13.454-17.576 7.393-41.614 19.662-54.81 27.975-7.046 4.439-13.161 7.854-13.59 7.589-.43-.266-5.015 2.248-10.19 5.585-23.146 14.925-44.134 43.829-50.358 69.353-6.341 26-6.022 34.955 1.85 51.994 4.208 9.107 6.233 10.419 11.691 7.575 2.183-1.138 4.645-2.069 5.471-2.069 2.345 0 9.985-4.163 21.436-11.681 5.775-3.792 12.525-8.052 15-9.467 9.286-5.31 25.29-10.465 38.142-12.285 3.983-.564 4.993-.331 7.117 1.638 3.736 3.465 6.388 11.18 7.664 22.295.631 5.5 2.065 14.5 3.186 20s2.885 15.841 3.92 22.981c2.574 17.759 4.833 19.331 14.73 10.251 8.641-7.928 12.185-10.371 18.416-12.699 3.121-1.166 7.309-3.23 9.307-4.585 6.515-4.422 14.201-6.391 20.812-5.334 11.688 1.871 22.088 7.483 26.958 14.549 1.455 2.11 4.186 7.887 6.069 12.837 5.303 13.938 9.962 20.5 14.556 20.5 2.191 0 9.563-8.525 14.268-16.5 6.053-10.261 12.897-17.527 20.996-22.292 7.645-4.499 22.55-10.54 24.323-9.86.797.306 2.393 3.663 3.546 7.46 1.428 4.7 3.118 7.887 5.294 9.984 4.493 4.33 15.468 8.191 25.196 8.863 12.14.839 17.705-1.571 28-12.123 13.942-14.291 16.891-21.47 18.489-45.011 1.394-20.546-1.189-29.346-11.731-39.954-7.889-7.937-16.878-12.722-44.258-23.56-46.433-18.378-96.738-49.438-117.972-72.841-9.031-9.952-20.235-26.079-23.009-33.119-1.156-2.932-2.503-9.616-3.003-14.905-.695-7.346-1.329-9.909-2.712-10.956-1.712-1.296-1.702-1.348.196-1.015 2.305.403 5.607 6.615 11.071 20.829 4.027 10.475 11.736 21.54 24.819 35.621 5.823 6.267 10.572 9.951 23.215 18.008 30.127 19.197 42.923 26.748 52.395 30.916 5.225 2.3 14.164 6.289 19.863 8.866 5.7 2.577 14.326 6.271 19.168 8.209 9.789 3.918 23.586 11.542 31.368 17.333 2.806 2.088 8.856 7.452 13.446 11.921 4.589 4.47 8.524 8.126 8.744 8.126.219 0 1.639-1.687 3.155-3.75 2.601-3.539 3.063-3.75 8.219-3.75 5.406 0 5.471-.036 6.356-3.5.491-1.925 1.703-6.049 2.693-9.164l1.799-5.665-2.542-2.335c-1.398-1.285-6.784-8.636-11.97-16.336-5.185-7.7-12.086-17.825-15.335-22.5-6.801-9.787-22.538-40.495-28.83-56.26-9.34-23.398-26.87-76.501-29.282-88.701-1.146-5.796-3.174-14.362-4.506-19.034-2.459-8.621-4.642-31.319-4.473-46.505.148-13.302 5.789-27.92 14.127-36.61 5.175-5.394 9.307-6.886 19-6.863 10.874.026 18.75 3.484 41.312 18.143 16.539 10.745 39.455 34.33 52.398 53.927 10.117 15.319 20.73 30.796 20.96 30.566.118-.117.674-2.902 1.237-6.188.563-3.286 1.29-6.886 1.616-8 1.684-5.754-30.076-38.481-67.523-69.578-40.648-33.756-64.139-51.07-74.111-54.624l-4.612-1.644-.591-14.564c-.325-8.011-1.217-17.103-1.982-20.204-.764-3.102-1.195-6.967-.957-8.589.42-2.866-1.211-5.593-3.877-6.482-1.089-.363-.455-4.936 1.822-13.156.366-1.323 2.272 1.443 6.543 9.5 8.56 16.145 22.076 38.19 26.981 44.007 5.034 5.971 15.783 14.863 21.284 17.608 2.2 1.098 7.059 3.022 10.797 4.275l6.797 2.278 8.203-2.041c16.745-4.166 28.95-11.669 47.051-28.922 6.47-6.166 8.531-8.938 11.738-15.781 5.106-10.897 7.079-18.944 7.221-29.455.177-13.138-3.683-40.871-7.153-51.387l-1.885-5.716h6.668c5.731 0 7.828-.56 14.912-3.986 8.045-3.891 8.314-4.137 11.176-10.255 3.49-7.456 4.975-14.576 4.975-23.846 0-9.493-1.356-14.935-8.165-32.763-8.437-22.091-12.481-29.476-28.835-52.652-3.025-4.287-8.712-12.341-12.638-17.897-5.415-7.661-7.868-12.282-10.158-19.131-3.582-10.717-9.177-22.941-13.838-30.239-1.851-2.899-3.366-5.601-3.366-6.006 0-.404 1.608-1.239 3.574-1.854 3.369-1.055 3.757-.933 6.75 2.122 4.166 4.252 18.6 11.103 26.176 12.423 9.674 1.687 27.711.055 34.675-3.136 19.059-8.734 26.254-29.769 18.396-53.78-3.41-10.421-8.82-21.989-14.101-30.153-2.459-3.8-4.47-7.063-4.47-7.25 0-.188 1.912-.642 4.25-1.009 9.01-1.417 19.491-8.674 27.803-19.25 7.69-9.785 10.639-14.905 13.455-23.361 2.371-7.121 2.832-7.795 5.72-8.373 1.727-.345 3.845-1.248 4.706-2.005 1.251-1.1 3.479-1.204 11.066-.515 12.991 1.18 59.903 1.15 74.54-.048 6.578-.539 15.56-1.645 19.96-2.459 6.973-1.29 20.282-3.352 25.83-4.003 2.874-.337 3.76-2.666 3.07-8.074-.689-5.409-2.777-8.314-27.319-38-20.234-24.477-19.917-24.042-18.911-25.839.596-1.066.536-2.288-.168-3.411-.915-1.459-.986-1.334-.426.75l.672 2.5-2.124-2.658c-1.168-1.461-2.117-3.036-2.109-3.5.009-.463.493-.167 1.076.658.943 1.333 1.016 1.333.652 0-.225-.825-1.047-1.5-1.826-1.5-.78 0-2.003-.784-2.718-1.742-1.514-2.027-5.859-4.635-4.761-2.858 1.934 3.128-1.277.062-9.639-9.205-13.296-14.733-46.113-55.731-69.796-87.195-11.179-14.85-21.827-28.768-23.664-30.93-1.836-2.161-3.339-4.299-3.339-4.75 0-.451 1.93-.82 4.29-.82 8.212 0 35.079-8.274 44.171-13.604 11.358-6.657 17.04-10.283 21.289-13.584 3.592-2.791 4.243-3.845 4.206-6.807-.024-1.928-.692-5.305-1.485-7.505-.792-2.2-1.448-4.762-1.456-5.693-.008-.932-1.002-2.385-2.208-3.23l-2.194-1.536 2.368-2.521c1.302-1.386 2.883-2.52 3.512-2.52 3.521 0 12.228-3.567 14.672-6.011 3.261-3.261 3.782-8.258 1.351-12.959-1.638-3.166-8.263-8.891-13.172-11.383-5.142-2.609-19.192-6.313-28.844-7.604a5357.49 5357.49 0 01-15.692-2.123c-3.68-.506-9.305-.927-12.5-.935-3.194-.009-6.438-.414-7.207-.902-1.537-.973-1.35-3.196 1.522-18.083 1.432-7.419 1.617-17.021 1.459-75.5-.1-36.85-.6-73.525-1.111-81.5-1.117-17.42-1.219-36.077-.206-37.615.404-.614 1.732-1.426 2.95-1.806 2.907-.907 5.838 1.205 20.785 14.979 14.762 13.604 23.745 20.801 33.474 26.819 6.201 3.835 8.301 4.623 12.327 4.623 3.968 0 5.357-.505 7.621-2.768 1.569-1.569 3.09-4.484 3.511-6.727.408-2.177 3.012-9.368 5.786-15.981 9.472-22.58 14.996-42.195 13.201-46.873-.803-2.09-3.773-2.597-5.94-1.013-1.024.749-2.628 1.362-3.564 1.362-.935 0-3.417 2.25-5.514 5-2.097 2.75-4.087 5-4.422 5-.335 0-1.362-1.463-2.281-3.25s-4.362-7.525-7.651-12.75c-3.289-5.225-7.862-12.65-10.162-16.5-2.3-3.85-6.595-10.892-9.545-15.649-2.951-4.758-6.317-10.833-7.481-13.5-2.622-6.012-9.964-16.501-13.492-19.276-3.291-2.589-5.991-2.599-15.958-.061-10.563 2.69-13.928 3.792-20.227 6.627-2.925 1.317-5.695 2.161-6.155 1.876-.46-.284-2.177-2.88-3.815-5.767C869.047 81.357 851.315 64 844.775 64c-4.251 0-14.945 8.024-21.992 16.5-7.715 9.28-25.305 27.074-31.082 31.442-6.35 4.801-18.561 14.434-20.951 16.526-.962.843-1.75 1.291-1.75.997 0-.295-1.013.412-2.25 1.57-1.237 1.158-7.425 5.92-13.75 10.583l-16 11.793c-2.475 1.825-12.15 8.629-21.5 15.122s-18.565 13.079-20.478 14.636c-4.145 3.374-5.022 3.508-5.022.765 0-5.415-5.339-8.672-10.593-6.463-1.624.683-6.48 4.569-10.79 8.635-4.311 4.067-8.157 7.517-8.548 7.668-.391.15-2.313-.396-4.272-1.214l-3.56-1.488.524-11.05c.459-9.69.302-11.295-1.274-13.036-4.363-4.822-11.348-1.249-20.199 10.331-2.599 3.401-5.364 6.84-6.145 7.643-.781.803-2.746 3.615-4.367 6.25-1.621 2.634-3.16 4.79-3.42 4.79-.26 0-2.195-1.384-4.3-3.075-5.279-4.243-18.465-8.617-28.402-9.422-11.666-.946-21.126 1.278-37.624 8.847-15.289 7.014-17.363 9.018-15.067 14.56 1.68 4.055 4.043 5.205 17.537 8.529 14.298 3.521 15.9 4.543 15.209 9.697-1.249 9.31 3.112 14.358 12.264 14.195 3.04-.054 6.065.334 6.722.862.658.529 1.943 3.212 2.857 5.964 1.708 5.143 5.806 8.831 9.82 8.839 1.579.003 1.671.248.586 1.555-1.428 1.72-17.858 14.477-27.958 21.708-3.575 2.56-8.115 6.136-10.089 7.947-1.975 1.812-9.338 8.019-16.363 13.794s-13.142 11.462-13.593 12.638c-.451 1.176-3.337 3.578-6.412 5.337-3.075 1.76-12.893 8.404-21.817 14.765-8.924 6.362-17.387 12.285-18.807 13.163-2.668 1.651-11.693 9.271-20.21 17.066-5.198 4.756-7.709 8.654-7.709 11.968 0 2.219-1.195 2.841-16.703 8.691-8.969 3.384-9.285 3.43-12.415 1.811-5.185-2.681-65.468-37.181-76.382-43.713-5.5-3.291-22.047-13.464-36.77-22.605a42050.656 42050.656 0 00-39.234-24.334c-6.855-4.242-14.705-9.221-17.443-11.065l-4.979-3.353 10.713-4.201c5.892-2.31 12.963-4.882 15.713-5.716 2.75-.833 6.575-2.304 8.5-3.268 3.116-1.562 3.47-2.14 3.231-5.277-.324-4.236 2.518-7.309 7.654-8.275 3.49-.656 8.095-4.976 8.136-7.632.012-.825.878-3.384 1.923-5.686l1.901-4.186 5.423.56c9.475.978 14.126-4.274 13.084-14.774-.661-6.668-.5-6.788 15.128-11.387 6.184-1.82 12.206-3.824 13.382-4.453 3.506-1.876 5.463-5.697 4.749-9.27-.654-3.27-3.189-6.804-4.881-6.804-.528 0-6.421-2.711-13.095-6.024-14.671-7.283-23.54-9.452-34.933-8.543-11.336.904-21.841 4.528-27.874 9.615-2.739 2.31-5.329 3.806-5.756 3.326-1.352-1.524-15.521-22.397-16.755-24.683-1.366-2.532-6.533-28.308-8.763-43.716-1.799-12.433-4.176-40.205-5.004-58.475-.563-12.438.633-45.196 2.054-56.25l.675-5.25h-4.028c-3.761 0-4.066.216-4.598 3.25-1.667 9.503-2.877 42.408-2.308 62.75.854 30.521 2.813 48.405 8.257 75.388 1.319 6.538 2.398 12.226 2.398 12.641 0 .415-1.068 1.022-2.373 1.35-3.942.989-5.006 5.335-4.305 17.588l.62 10.833-3.372 1.6c-1.855.88-3.595 1.6-3.867 1.6-.272 0-4.714-4.275-9.872-9.5-8.293-8.402-9.779-9.498-12.854-9.485-5.979.027-7.977 2.891-7.977 11.436 0 4.617 3.156 21.744 5.554 30.146.566 1.979.118 2.133-8.023 2.759-10.225.786-20.847 4.245-28.373 9.241-2.939 1.95-5.864 3.341-6.5 3.091-1.081-.425-37.435-24.373-75.926-50.017L70.965 163.5 64.862 151c-20.2-41.372-30.059-75.571-32.86-113.983-.581-7.965-.753-19.553-.382-25.75L32.294 0H21.306l-.617 11.51M353.5.518c.55.198 6.625 1.503 13.5 2.899 6.875 1.397 19.925 4.146 29 6.109 15.763 3.409 38.119 8.164 68.5 14.567 7.7 1.623 22.1 4.538 32 6.477 9.9 1.94 20.925 4.148 24.5 4.907 13.649 2.9 18.582 3.871 21 4.136 1.375.151 7.225 1.22 13 2.376 5.775 1.157 12.51 2.341 14.967 2.632 2.457.291 4.82.747 5.25 1.013.431.266.783.056.783-.468s-.788-1.271-1.75-1.66c-2.084-.844-30.82-8.2-37.25-9.536-2.475-.514-11.25-2.469-19.5-4.344A22791.243 22791.243 0 00455 15.521a27376.185 27376.185 0 01-44.098-9.948L386.304 0l-16.902.079C360.106.122 352.95.32 353.5.518M1681 1.839c0 2.644-10.598 35.149-14.672 44.999-6.394 15.463-17.189 33.849-29.451 50.162-9.113 12.123-24.313 28.365-31.877 34.06-2.475 1.864-4.761 3.753-5.08 4.198-.319.445-1.35.514-2.291.153-1.118-.429-1.61-.211-1.42.63.169.748-3.566 3.247-8.935 5.977-7.479 3.802-10.602 4.818-16.5 5.366-5.059.469-7.836 1.236-9.119 2.518-1.793 1.792-1.784 1.9.33 3.869 2.912 2.714 4.616 2.995 25.515 4.22 9.9.579 22.907 1.745 28.904 2.589 39.344 5.537 80.265 24.671 117.096 54.753 12.474 10.188 30.262 27.197 35.592 34.032l2.235 2.866-3.414-.866c-1.877-.476-6.39-.853-10.028-.837-5.498.023-7.309.487-10.728 2.75-2.263 1.497-4.505 2.722-4.984 2.722-.478 0-1.725-1.899-2.771-4.22-2.029-4.502-6.033-9.78-7.419-9.78-2.283 0-3.983 3.445-3.983 8.071 0 2.711-.45 4.996-1 5.079-.55.083-1.417.195-1.928.25-.51.055-2.313-1.812-4.006-4.15-3.273-4.519-3.715-4.757-6.066-3.271-1.176.743-1.444 2.768-1.242 9.372l.258 8.423-3.712.697c-7.565 1.419-13.649 5.928-18.144 13.448-2.005 3.355-2.161 3.415-8.352 3.234-5.469-.16-6.936.214-11.03 2.815-6.709 4.263-9.1 9.322-8.599 18.195.213 3.76.216 6.837.008 6.837-.209 0-4.048-1.995-8.533-4.433-13.801-7.504-22.331-9.931-35.154-10.004-12.28-.07-12.963.163-21.346 7.296-4.787 4.072-5.45 4.364-6.331 2.789-.777-1.388-1.284-1.51-2.404-.581-.851.707-1.419.772-1.419.164 0-.558-1.013-1.306-2.25-1.662-1.295-.372-8.284-8.162-16.469-18.358-15.793-19.671-51.97-57.572-69.899-73.229-26.33-22.993-47.839-36.107-64.153-39.113-8.483-1.563-8.66-1.645-7.252-3.342.913-1.099.953-3.568.166-10.238-.571-4.834-1.321-11.709-1.667-15.277-.346-3.569-1.157-6.825-1.803-7.235-2.674-1.701-4.806-.704-6.357 2.973-1.531 3.628-1.616 3.676-2.612 1.478-.566-1.249-2.158-2.555-3.538-2.901-3.416-.858-7.107 3.415-7.325 8.479-.452 10.529 1.361 25.418 3.17 26.027 2.319.782.649 2.799-3.765 4.547-17.396 6.892-33.851 17.083-44.8 27.747-11.156 10.867-12.331 11.009-21.694 2.637-3.989-3.567-9.826-8.286-12.972-10.488-3.146-2.201-5.552-4.176-5.346-4.389.205-.213-2.084-.51-5.088-.659-10.786-.538-13.911 3.625-29.847 39.772-4.243 9.625-10.386 23.966-13.651 31.869-4.829 11.693-7.963 17.374-16.824 30.5-11.55 17.11-16.023 22.631-18.337 22.631-2.044 0-8.924 6.28-12.303 11.23-1.586 2.324-4.009 5.253-5.384 6.51-3.849 3.518-15.791 9.008-23.466 10.788-8.653 2.007-10.14 2.809-12.046 6.495-1.386 2.681-1.375 3.448.121 8.02 1.947 5.953 4.838 8.449 15.463 13.347 16.402 7.562 38.283 11.171 66.928 11.039 12.539-.058 17.04-.483 23.563-2.224 9.689-2.586 15.645-5.131 20.968-8.96 6.519-4.689 6.598-4.712 5.386-1.552-.592 1.544-3.933 10.457-7.425 19.807-3.493 9.35-8.203 21.5-10.469 27s-5.547 13.6-7.293 18c-1.745 4.4-7.975 17.72-13.843 29.599l-10.67 21.599-4.859.65c-6.891.92-11.216 3.479-12.257 7.25-.475 1.718-5.926 9.967-12.115 18.333-12.352 16.695-20.785 32.32-21.908 40.594-.375 2.764-1.049 5.62-1.498 6.345-.506.82-.007 2.414 1.319 4.207l2.134 2.887-4.267 3.107c-2.346 1.709-5.616 3.809-7.266 4.666-1.65.856-6.15 3.674-10 6.26-26.835 18.029-38.197 23.637-76 37.514-11.55 4.24-24.15 8.944-28 10.452-8.464 3.316-22.486 6.534-36 8.261-9.349 1.195-18.259.926-24.732-.745-2.315-.598-2.877-.322-3.688 1.811-.526 1.384-1.434 2.811-2.018 3.172-2.009 1.242-1.13 5.398 1.532 7.241 1.427.988 5.065 3.964 8.083 6.612 3.019 2.649 7.875 6.343 10.793 8.209 2.917 1.866 5.917 3.974 6.667 4.684 2.799 2.652 31.979 17.466 42.363 21.507 9.191 3.576 22.725 8.027 26.75 8.797 1.849.354 2.75 1.148 2.75 2.424 0 1.043.478 2.057 1.062 2.251 1.717.573-.444 4.977-5.057 10.308-2.292 2.647-5.182 7.11-6.424 9.917-1.263 2.857-3.758 6.25-5.669 7.709-6.321 4.828-24.236 38.309-37.927 70.879a3285.604 3285.604 0 01-11.536 27c-9.421 21.747-11.766 27.976-18.324 48.688-12.895 40.721-17.748 62.804-20.616 93.812-.814 8.8-2.138 21.625-2.943 28.5-3.011 25.733-3.512 43.443-2.546 90 .946 45.592 1.165 48.614 4.907 67.886 1.549 7.976 2.503 10.727 4.115 11.856 3.945 2.763 17.454 15.182 19.958 18.347 11.298 14.282 24.148 38.404 33.467 62.824 6.14 16.091 9.739 30.57 13.121 52.8.322 2.116 2.61 5.563 6.7 10.095 3.417 3.785 6.959 7.739 7.872 8.787 1.845 2.116 9.936 8.716 16.839 13.734 4.793 3.485 6.012 6.478 5.032 12.353-.412 2.467-1.993 4.29-7.031 8.104-12.947 9.803-19.855 19.977-22.025 32.437-1.395 8.012-.27 12.923 4.348 18.978 4.353 5.708 14.065 10.799 20.599 10.799h4.747l-.413 7.75c-.373 6.988-.135 8.29 2.415 13.249 2.802 5.447 7.949 10.001 11.304 10.001 3.111 0 20.425-13.991 34.836-28.151 16.573-16.284 24.79-25.664 33.046-37.723 5.557-8.118 14.143-24.323 14.143-26.695 0-.592 1.29-3.744 2.866-7.004 1.577-3.26 3.862-9.302 5.079-13.427a6694.54 6694.54 0 003.675-12.5c1.801-6.155 3.137-15.474 4.362-30.429 1.074-13.104 3.722-30.721 4.948-32.91.678-1.211.959-1.086 1.518.676.378 1.19 1.158 2.163 1.734 2.163.678 0 .865-2.462.53-7-.512-6.927-.142-8.03 1.981-5.907.79.79 1.657.79 3.134 0 2.913-1.559 7.313-1.365 19.748.873 6.009 1.081 12.5 2.038 14.425 2.125 10.357.47 27.068 2.034 31 2.901a4416.05 4416.05 0 0019 4.086c22.314 4.762 59.201 15.277 82.773 23.597 5.739 2.025 13.818 7.569 24.996 17.151 10.741 9.208 14.546 13.306 16.875 18.174.921 1.925 2.759 5.146 4.086 7.157 6.5 9.852 11.964 29.667 10.965 39.758-1.208 12.198-6.873 23.687-16.601 33.673-4.674 4.798-15.928 13.412-17.522 13.412-.296 0-4.864 2.077-10.152 4.615-7.609 3.652-10.325 4.5-13.017 4.063-1.872-.304-3.403-.243-3.402.135 0 .378.864 2.96 1.92 5.738 2.304 6.062 3.929 17.365 3.324 23.116-.62 5.885-3.592 8.388-10.378 8.739-2.952.153-10.092.781-15.867 1.396-5.775.615-16.125 1.58-23 2.144-16.714 1.372-25.252 3.906-44.5 13.206-15.855 7.66-21.68 11.474-38.007 24.886-15.871 13.037-18.493 15.486-18.493 17.272 0 .555 3.782.644 9.402.223l9.401-.705.687 3.125c.792 3.606 5.395 9.984 13.398 18.564 3.087 3.309 11.225 12.715 18.086 20.902 6.86 8.187 12.935 15.379 13.5 15.983.564.604 3.481 4.023 6.482 7.598 3.001 3.575 7.726 8.989 10.5 12.032 6.751 7.403 10.965 12.201 17.544 19.971 3.025 3.574 5.95 6.993 6.5 7.598.55.606 4.825 5.513 9.5 10.905 7.529 8.683 24.895 24.758 31.232 28.91 1.263.828 4.085 3.886 6.27 6.795 2.185 2.909 8.086 10.239 13.112 16.289 10.732 12.919 18.177 26.783 25.501 47.489 2.061 5.826 2.073 5.552-1.644 38.261l-.54 4.75h201.826l.606-16.25c1.573-42.175-.499-93.312-5.339-131.75l-2.451-19.5c-.829-6.6-2.444-20.325-3.591-30.5-1.146-10.175-2.722-22.1-3.502-26.5-.779-4.4-1.881-11.713-2.449-16.25-.567-4.537-1.501-11.963-2.076-16.5-.575-4.537-1.987-13.084-3.139-18.991l-2.093-10.742 2.754-4.162c1.515-2.289 2.987-5.893 3.27-8.008.478-3.563.755-3.847 3.748-3.847 9.649 0 22.407-4.422 34.005-11.786 12.553-7.971 41.732-39.692 45.353-49.303.823-2.184 1.459-2.519 4.061-2.137 3.59.527 3.868-.51 1.086-4.047-2.514-3.196-2.502-3.963.102-6.32 4.854-4.392 6.509-11.761 2.898-12.907-1.1-.349-2.841-.368-3.868-.042-1.428.453-2.187-.178-3.222-2.676-.745-1.798-4.609-6.676-8.587-10.84-8.074-8.45-8.292-9.504-3.299-15.942 1.493-1.925 4.011-5.975 5.595-9 2.597-4.957 2.878-6.437 2.849-15-.026-7.538-.476-10.474-2.179-14.217-3.088-6.784-10.143-13.837-22.228-22.221-5.808-4.03-11.664-8.518-13.012-9.973-1.348-1.455-7.648-6.11-14-10.344-6.352-4.234-11.999-8.052-12.549-8.484-.55-.432-2.8-2.148-5-3.815-2.2-1.667-4.675-3.58-5.5-4.252-.825-.673-3.075-2.319-5-3.66-1.925-1.341-3.725-2.706-4-3.034-.275-.328-2.075-1.678-4-3-1.925-1.322-3.725-2.679-4-3.016-.275-.337-4.1-3.234-8.5-6.437-4.4-3.203-11.021-8.481-14.713-11.728-3.692-3.247-9.092-7.505-12-9.461-2.908-1.956-5.512-3.864-5.787-4.241-.275-.377-2.638-2.411-5.25-4.521-2.613-2.11-4.75-4.167-4.75-4.571 0-.404 3.09-.994 6.867-1.311 3.777-.316 10.19-1.654 14.25-2.971a806.105 806.105 0 0115.383-4.78c15.233-4.537 19.333-9.45 18.098-21.688-1.447-14.337-4.593-26.509-9.314-36.039-2.525-5.095-4.337-9.517-4.027-9.826.309-.31 3.667-1.362 7.461-2.337 9.471-2.437 16.887-6.335 22.614-11.888 5.727-5.552 8.678-10.981 11.551-21.249 2.664-9.52 2.666-15.401.007-26.949l-2.11-9.165 2.965-3.161c8.667-9.24 13.745-21.281 15.782-37.427.482-3.816 1.219-5.563 2.676-6.343 1.442-.771 2.321-.767 3.104.016 1.721 1.721 5.214 1.28 7.193-.907 4.356-4.814 6.878-2.076 14.789 16.055 5.526 12.667 6.335 14.477 14.718 32.945 19.311 42.544 29.903 69.808 37.438 96.369 3.99 14.064 8.548 31.283 8.57 32.377.009.414.41.132.891-.628 2.888-4.561 15.913 62.653 18.191 93.877 1.449 19.854.59 66.806-1.399 76.505-3.154 15.382-5.024 22.224-7.377 27-3.322 6.744-3.596 6.926-7.43 4.944-5.1-2.637-12.438-2.3-18.57.854-2.849 1.465-5.475 3.142-5.836 3.727-1.09 1.763 1.395 3.779 5.515 4.475 4.374.739 5.654 1.883 6.154 5.5.251 1.811 1.04 2.581 2.866 2.794 1.478.173 3.177 1.413 4.111 3 1.556 2.645 1.425 3.032-5.825 17.206-4.08 7.975-8.294 15.565-9.366 16.866l-1.948 2.365-3.746-2.862c-2.06-1.574-4.136-2.734-4.612-2.577-.477.157-1.914-.401-3.194-1.239-1.52-.996-3.413-1.308-5.457-.9-2.782.557-3.058.916-2.48 3.237.358 1.435 2.528 5.03 4.823 7.988 2.296 2.957 4.592 5.947 5.102 6.644.634.865.044 2.33-1.86 4.622-4.385 5.277-11.636 12.848-12.386 12.933-4.514.506-13.277 4.726-15.731 7.575-1.519 1.762-3.332 2.477-7 2.762-4.708.365-4.966.536-5.265 3.491-.592 5.867 6.277 12.095 13.341 12.095 1.508 0 2.327.427 1.96 1.021-1.245 2.015 6.564 4.238 11.973 3.408 2.772-.425 7.515-.831 10.54-.903 5.506-.131 7.317-.863 32.919-13.313 2.981-1.449 8.076-5.18 11.324-8.289 5.529-5.294 6.295-5.695 12.001-6.292 3.353-.35 8.404-1.364 11.224-2.254 5.017-1.581 5.287-1.559 12.347.987 21.069 7.6 47.99 8.715 71.084 2.943 1.481-.37 2.162-.216 1.78.402-1.167 1.888 4.681.016 10.287-3.293 3.044-1.797 7.488-5.105 9.876-7.35 2.388-2.245 6.888-5.766 10-7.823 11.251-7.438 25.792-23.006 35.346-37.842 1.452-2.254 4.647-8.104 7.102-13 12.435-24.806 18.302-47.035 22.804-86.402.661-5.775 1.589-11.001 2.063-11.614.484-.626.432-6.54-.119-13.5-.54-6.812-1.448-22.061-2.018-33.886-2.24-46.474-10.425-95.372-26.531-158.5-5.793-22.703-9.02-34.219-19.9-71-8.28-27.99-28.84-87.275-48.38-139.5-15.433-41.247-22.362-60.362-27.549-76l-4.478-13.5 1.587-6.411c1.76-7.111 19.201-43.28 30.052-62.321 3.845-6.748 9.62-17.587 12.835-24.087 5.797-11.724 5.868-11.814 8.844-11.191 1.65.345 8.85 1.25 16 2.011 7.15.761 14.572 1.86 16.493 2.441 1.922.582 8.314 1.058 14.205 1.058 10.035 0 11.424-.259 22.007-4.098 6.212-2.254 18.495-6.565 27.295-9.58 8.8-3.015 18.475-6.72 21.5-8.233 3.025-1.513 8.987-4.013 13.25-5.554l7.75-2.803V376.311l-14.25-.652c-7.838-.358-19.65-.657-26.25-.663l-12-.011-10-8.147c-40.299-32.832-76.777-51.892-115.618-60.413-6.81-1.494-12.542-2.848-12.738-3.01-.196-.161 4.704-6.058 10.888-13.104 17.924-20.423 21.016-24.003 33.583-38.89 17.553-20.792 52.625-61.856 64.752-75.813 2.816-3.24 5.63-6.59 6.254-7.443.981-1.341 1.764-.996 5.802 2.558 12.067 10.622 28.033 34.707 43.577 65.738 5.775 11.529 11.039 21.121 11.698 21.316 2.949.874-1.877-15.551-9.852-33.529-4.452-10.036-7.37-15.704-15.825-30.748-4.573-8.136-13.124-20.315-19.555-27.853-5.786-6.781-6.452-7.968-5.293-9.432 3.009-3.797 34.065-40.679 44.81-53.215 6.364-7.425 12.909-15.191 14.544-17.258 1.635-2.066 3.536-3.543 4.223-3.281.936.357 1.25-1.555 1.25-7.615 0-6.818-.22-7.908-1.399-6.93-1.112.923-3.807-.403-13.168-6.481-25.17-16.341-45.517-25.098-76.662-32.993-5.645-1.431-10.395-2.733-10.555-2.892-.159-.16 2.891-3.387 6.78-7.17l7.069-6.88 16.718-5.659L1993.5.182l-20.183-.091c-18.904-.085-20.22.028-20.778 1.785-.615 1.938-2.747 2.833-23.039 9.672-24.45 8.24-42.591 14.497-53.5 18.454C1854.15 37.926 1833.846 45 1832.95 45c-.494 0 .496-2.362 2.201-5.25 5.627-9.533 11.98-25.744 14.305-36.5l.703-3.25h-12.103l-1.655 5.75C1831.16 23.958 1816.632 53 1812.765 53c-.672 0-4.157 1.092-7.744 2.427-3.586 1.335-16.604 6.106-28.927 10.603-12.323 4.496-24.473 9.077-27 10.179-2.527 1.102-8.869 3.507-14.094 5.343-5.225 1.837-14.9 5.425-21.5 7.975-6.6 2.549-13.8 5.233-16 5.963-2.2.731-6.475 2.3-9.5 3.488a502.716 502.716 0 01-9.5 3.616c-2.2.801-5.35 2.062-7 2.802-1.65.74-6.375 2.581-10.5 4.091-9.407 3.445-25.222 9.602-26.35 10.259-1.243.725 1.164-3.513 2.445-4.305 2.154-1.331 15.829-20.528 22.165-31.115 10.184-17.017 15.172-28.361 22.134-50.326 3.801-11.993 8.496-30.179 8.584-33.25.012-.413-2.003-.75-4.478-.75-3.702 0-4.5.326-4.5 1.839m253.85 17.644c-.414.414-38.939 13.615-95.756 32.812l-15.407 5.205-8.593 7.838c-4.727 4.311-10.944 9.261-13.816 11-5.002 3.029-7.191 5.627-3.528 4.189 3.663-1.439 32.058-1.807 43.333-.562 44.478 4.911 91.115 27.902 123.766 61.013l10.35 10.495 1.992-2.487c1.096-1.367 3.923-4.736 6.283-7.486 2.36-2.75 8.281-9.758 13.159-15.573 9.807-11.694 34.333-40.525 38.576-45.347 1.491-1.694 2.728-3.441 2.75-3.882.054-1.05-33.523-17.256-46.894-22.634-5.739-2.308-18.828-7.042-29.085-10.519-17.926-6.077-23.875-8.495-26.869-10.92-.764-.619-3.421-1.575-5.903-2.125-3.486-.772-4.59-1.498-4.845-3.188-.238-1.567.302-2.363 1.903-2.808 4.221-1.172 9.734-3.809 9.734-4.656 0-.951-.428-1.087-1.15-.365M579.51 46.016c.346.559 1.047.758 1.559.441 1.387-.857 1.129-1.457-.628-1.457-.857 0-1.276.457-.931 1.016M1798.84 66.03c-1.7.992-19.187 7.279-44.701 16.073-7.899 2.722-20.949 7.386-29 10.364-8.052 2.979-27.914 10.203-44.139 16.054a20403.163 20403.163 0 00-40.5 14.644c-6.05 2.204-11.662 4.043-12.471 4.087-.808.045-1.933.471-2.5.947-5.757 4.843-19.914 14.702-23.252 16.193-2.322 1.038-3.979 2.282-3.681 2.764.298.482.908.651 1.355.374.447-.276 6.51-.067 13.472.464 24.877 1.899 50.652 9.38 74.838 21.722 25.183 12.85 41.821 25.226 64.819 48.212 16.517 16.508 27.29 30.835 35.013 46.565 5.378 10.952 5.573 11.709 3.474 13.451-1.185.984-2.668-.652-8.578-9.461-6.497-9.682-7.298-10.517-8.818-9.183-.919.807-3.628 2.451-6.019 3.654-4.044 2.034-4.307 2.409-3.767 5.366.703 3.842-.065 5.228-3.655 6.593-1.772.673-2.73 1.771-2.73 3.128 0 3.398-1.9 5.959-4.42 5.959-1.403 0-3.01 1.007-3.988 2.5-1.793 2.736-3.629 3.119-6.465 1.347-1.479-.924-2.356-.775-4.416.75-1.414 1.047-2.8 2.746-3.08 3.776-.448 1.652-1.153 1.792-5.973 1.19-3.251-.406-5.71-.288-6.069.292-.331.537 3.522 4.002 8.563 7.702 12.969 9.519 30.681 27.059 40.337 39.943 9.839 13.13 11.437 16.077 12.197 22.498.319 2.689 1.139 5.105 1.824 5.367.696.267 6.696-5.746 13.617-13.646 6.805-7.768 15.073-17.057 18.373-20.642 7.575-8.23 11.669-12.774 14.933-16.577l2.574-3-5.69-.305c-3.129-.168-10.444.184-16.254.784-24.327 2.51-22.527 2.512-24.903-.038-5.459-5.859-.033-9.134 19.84-11.974 5.807-.83 29.229-2.058 37.724-1.978.673.006 5.606-5.277 10.963-11.739 5.357-6.462 13.807-16.482 18.777-22.266 4.97-5.783 10.836-12.701 13.036-15.373 2.2-2.672 4.675-5.647 5.5-6.611.825-.964 3.3-3.925 5.5-6.578 7.808-9.418 27.261-32.409 46-54.368 10.45-12.245 19.421-22.85 19.937-23.566 1.74-2.422-19.768-21.196-39.017-34.057-41.213-27.536-87.675-40.039-131.848-35.482l-11.928 1.231-1.8-2.34c-2.259-2.938-2.262-3.422-.031-5.652.996-.997 1.683-2.235 1.526-2.75-.157-.516 2.515-3.07 5.938-5.677 7.436-5.662 12.723-10.292 12.723-11.143 0-.876-1.227-.716-3.16.412m-371.808 49.938c-2.235 2.235-1.724 5.042 2.102 11.564 3.962 6.75 5.348 8.3 8.029 8.973 3.208.805 5.84-2.224 8.796-10.126 2.69-7.189 2.742-12.379.124-12.379-1.054 0-2.068.338-2.253.75-.185.412-1.576 1.844-3.09 3.181l-2.753 2.43-2.744-2.534c-3.94-3.64-5.971-4.099-8.211-1.859m-52.029 25.524c-.552 1.451-1.003 5.309-1.003 8.573 0 3.264-.338 5.92-.75 5.902-.412-.019-2.1-2.381-3.75-5.25-3.227-5.611-6.73-7.107-7.3-3.116-.415 2.904 5.5 14.938 9.347 19.018 2.667 2.827 3.316 4.508 4.063 10.523.627 5.044 1.407 7.481 2.64 8.253 2.797 1.75 5.201-.445 5.549-5.067.283-3.768.445-3.946 3.232-3.537 2.404.353 3.105-.018 3.879-2.053 1.044-2.748 6.248-4.763 6.94-2.688.812 2.435 4.123 4.897 5.748 4.274 2.072-.795 1.52-6.576-1.714-17.946-3.889-13.679-8.86-18.54-13.675-13.372-1.939 2.081-4.122 9.809-4.327 15.32l-.119 3.174-.763-3c-.42-1.65-.842-5.475-.938-8.5-.333-10.465-4.638-16.875-7.059-10.508m56.873 3.258c-1.224 3.13-.528 15.083 1.16 19.925 1.313 3.765 3.743 4.974 5.821 2.897 1.279-1.279 1.327-2.452.322-7.902-.648-3.52-1.179-8.396-1.179-10.835 0-6.762-4.028-9.448-6.124-4.085m32.359 6.784l-1.878 3.66-1.702-2.597c-2.448-3.736-7.627-3.608-10.89.27-3.701 4.399-5.247 8.859-4.151 11.977 1.486 4.227 4.939 3.73 6.825-.983.85-2.124 1.821-3.861 2.159-3.861.338 0 1.499 1.125 2.581 2.5 2.605 3.312 6.732 3.288 9.874-.057 1.945-2.069 2.406-3.635 2.424-8.224.019-4.538-.315-5.735-1.671-6.006-1.12-.223-2.331.903-3.571 3.321M1356.2 153.2c-1.699 1.699-1.497 5.32.8 14.3 1.1 4.301 2 8.423 2 9.16 0 3.052-1.838.915-5.082-5.91-3.138-6.601-3.713-7.25-6.419-7.25-4.896 0-5.612 2.92-4.507 18.383 1.063 14.885 2.233 18.467 6.18 18.925 3.301.383 4.307-2.13 3.365-8.407-.427-2.851-.286-4.401.402-4.401.583 0 1.061.43 1.061.955 0 1.469 4.678 5.808 7.087 6.573 3.329 1.056 6.791-1.361 7.521-5.252.351-1.87.333-6.492-.039-10.27-.755-7.667-5.034-24.656-6.721-26.689-1.364-1.643-4.066-1.699-5.648-.117m35.502 1.135c-.386 1.006-.702 3.817-.702 6.247 0 3.301.387 4.418 1.531 4.418 2.412 0 2.882-2.802 1.315-7.845-1.114-3.59-1.603-4.232-2.144-2.82m22.93 12c.351 2.56.123 5.254-.552 6.515-1.338 2.5-1.237 2.516 6.348.993 4.167-.837 5.332-1.398 4.207-2.027-.855-.479-1.854-2.469-2.221-4.423-.367-1.954-1.172-3.704-1.79-3.889-.618-.185-2.354-.606-3.857-.935-2.715-.595-2.729-.569-2.135 3.766M252.15 198.006c-2.282 1.654-4.15 3.742-4.15 4.64 0 1.58 2.665 4.257 4.301 4.322 1.654.066 7.69-7.558 7.694-9.718.007-3.167-2.803-2.896-7.845.756m378.155 4.642c-.438 1.141.82 3.021 4.085 6.106 4.557 4.306 4.784 4.398 6.664 2.697 2.863-2.591 2.418-4.097-2.204-7.445-4.634-3.357-7.597-3.828-8.545-1.358m-407.543 4.425c-.955.557-2.201 1.878-2.767 2.935-.863 1.615-.552 2.169 1.939 3.458 3.745 1.936 10.442 1.991 12.013.098 1.72-2.073-.194-5.106-4.075-6.459-3.839-1.338-4.86-1.343-7.11-.032m912.589 40.667c-1.148 1.552-3.04 4.691-4.206 6.976l-2.12 4.155-5.762-2.923c-3.83-1.942-7.286-2.927-10.303-2.935-4.843-.014-15.88 2.511-17.337 3.965-1.88 1.877.339 5.701 4.361 7.515 5.193 2.341 6.516 4.025 6.516 8.291 0 3.391.864 4.412 4.75 5.612 1.127.349 1.75 1.549 1.75 3.373 0 3.461 1.622 5.231 4.794 5.231 1.557 0 2.577.703 2.919 2.011.65 2.484 4.773 3.661 6.834 1.95 1.953-1.621 6.291.483 7.488 3.631.735 1.934 1.502 2.12 8.138 1.975 4.03-.089 8.377-.738 9.66-1.444 1.962-1.078 2.611-1.031 4.079.297 2.49 2.254 4.833 1.959 7.527-.948l2.343-2.529 5.146 2.029c6.152 2.424 8.404 2.538 10.089.507 1.045-1.259.593-2.841-2.628-9.199-4.651-9.185-9.705-13.536-17.831-15.355-3.019-.675-5.298-1.537-5.064-1.916.234-.378.508-3.942.608-7.92.143-5.658-.188-7.598-1.52-8.911-1.596-1.573-1.879-1.481-4.533 1.465-1.557 1.729-3.245 3.885-3.752 4.791-1.791 3.199-3.926.692-4.877-5.726-.757-5.109-1.28-6.259-2.952-6.499-1.288-.184-2.794.741-4.117 2.531M1734.2 260.2c-1.572 1.572-1.537 3.8.059 3.8 1.486 0 3.896-3.511 3.015-4.392-.904-.905-1.738-.744-3.074.592m-601.2 2.366c0 1.605 2.255 4.434 3.535 4.434 1.771 0 1.92-2.145.265-3.8-1.226-1.226-3.8-1.655-3.8-.634m587.518 2.405c-.722 1.169 3.92 2.495 5.441 1.554.591-.365.815-1.082.498-1.594-.759-1.228-5.174-1.199-5.939.04M253 267c0 .55.675 1 1.5 1s1.5-.45 1.5-1-.675-1-1.5-1-1.5.45-1.5 1m891.459 1.067c-.363.586-.41 1.315-.106 1.62.852.851 5.647-.597 5.647-1.706 0-1.326-4.714-1.254-5.541.086m699.532 48.683c-.004.413-1.489 2.325-3.299 4.25-1.811 1.925-7.994 8.929-13.742 15.565-5.747 6.636-15.818 18.038-22.378 25.338l-11.929 13.273 1.607 2.662c.884 1.464 2.652 2.818 3.929 3.008 4.43.66 5.765 3.284 7.275 14.297.578 4.216.913 4.684 3.644 5.085 2.804.411 3.274-.016 6.96-6.328 4.95-8.474 6.378-9.9 9.919-9.9 2.482 0 3.033.582 4.429 4.678 1.022 2.999 1.594 8.113 1.594 14.25l-.001 9.572h11.751c8.897 0 12.787.425 16.02 1.75 4.42 1.811 13.23 2.403 13.23.889 0-.474-1.125-.647-2.5-.384s-2.5.033-2.5-.511c0-.543 1.899-1.292 4.22-1.663 2.321-.371 4.459-1.006 4.75-1.411.292-.405 2.964-2.499 5.939-4.655 5.02-3.637 6.02-3.959 13.909-4.483 9.099-.604 13.472.328 18.304 3.9 1.522 1.125 4.873 2.609 7.446 3.298 2.574.688 4.897 1.818 5.163 2.51.265.693 1.158 1.26 1.983 1.26.922 0 1.278.578.924 1.5-.497 1.295 1.636 1.499 15.643 1.494l16.219-.006.155-17.412c.085-9.577.607-18.222 1.161-19.212.554-.99 3.133-2.511 5.732-3.38l4.724-1.58-8.886-6.554c-34.726-25.611-69.415-42.132-103.652-49.364-11.951-2.525-17.727-3.09-17.743-1.736M699.079 376.583c.048 1.165.285 1.402.604.605.289-.722.253-1.585-.079-1.917-.332-.332-.568.258-.525 1.312m3 0c.048 1.165.285 1.402.604.605.289-.722.253-1.585-.079-1.917-.332-.332-.568.258-.525 1.312m365.869 9.667c-.555 1.238-1.58 5.373-2.277 9.191-1.127 6.173-1.557 7.018-3.89 7.642-2.427.649-3.046.068-8.25-7.752-4.989-7.497-5.932-8.419-8.327-8.143-4.287.495-6.179 5.785-6.465 18.078l-.239 10.251-12.048-.008c-11.459-.009-12.328.138-17.763 2.991-3.143 1.65-9.299 5.925-13.68 9.5-6.846 5.586-7.97 6.94-7.988 9.628-.032 4.679 2.142 5.764 13.772 6.872 11.022 1.051 11.528 1.316 12.635 6.624 1.247 5.983 5.12 8.001 12.246 6.379 2.976-.678 3.305-.465 5.29 3.427 2.868 5.621 6.09 7.034 10.554 4.63 3.379-1.82 3.386-1.819 6.509.809 4.692 3.949 8.628 3.133 11.477-2.377 1.442-2.789 1.776-2.915 6.116-2.321 2.859.392 5.476 1.516 6.939 2.979 3.299 3.299 5.629 2.948 10.941-1.65 3.29-2.847 5.541-4.004 7.811-4.015 4.064-.02 4.806-.553 8.104-5.817 2.018-3.221 3.146-4.161 4.399-3.665.928.367 3.115.907 4.863 1.201 4.099.689 8.323-3.162 8.323-7.587 0-4.735 2.212-6.115 9.821-6.128 10.187-.017 14.092-.927 15.915-3.709 1.154-1.762 1.342-3.082.68-4.774-1.365-3.486-14.993-14.375-22.416-17.91-5.884-2.803-7.403-3.093-16.028-3.06-7.647.028-10.375.454-13.817 2.157-3.889 1.924-4.342 1.968-4.858.465-3.406-9.926-8.711-22.226-10.34-23.973-2.696-2.894-6.696-2.862-8.009.065m-919.96 5c-1.09 1.788-2.944 6.175-4.119 9.75-1.175 3.575-2.31 6.809-2.522 7.186-.212.377-2.964-.504-6.116-1.958-8.712-4.02-17.966-3.8-29.574.701-6.635 2.573-9.066 4.017-9.738 5.783-1.331 3.501.72 5.928 7.056 8.351 3.039 1.162 6.538 2.514 7.775 3.003 1.903.754 2.25 1.641 2.25 5.758 0 5.735 2.033 8.176 6.81 8.176 2.627 0 3.251.458 3.749 2.75 1.386 6.386 3.233 8.005 8.326 7.294.762-.107 2.649 1.19 4.194 2.881 3.381 3.702 5.812 3.885 8.838.663l2.267-2.412 3.326 1.962c1.829 1.08 4.048 3.065 4.931 4.412 1.867 2.849 5.249 3.179 9.588.935 1.936-1.001 4.229-1.308 6.758-.903 3.185.509 4.348.176 6.915-1.985 3.559-2.995 4.576-3.172 6.298-1.097.685.825 2.507 1.5 4.05 1.5 2.658 0 4.627-1.714 7.471-6.502.957-1.611 1.544-1.579 9.32.52 13.344 3.6 16.408.488 9.909-10.065-8.263-13.417-17.235-19.741-29.392-20.716l-6.143-.494-.668-8.621c-.823-10.625-2.076-14.838-4.657-15.657-2.641-.838-3.975.422-7.42 7.007-2.202 4.21-3.429 5.528-5.143 5.528-2.303 0-2.967-1.503-4.86-11-.903-4.528-2.155-6-5.104-6-1.626 0-3.028 1.041-4.375 3.25m-.33 21.426c-.884.884 3.3 5.324 5.016 5.324 1.654 0 1.737-3.189.126-4.8-1.312-1.312-4.073-1.594-5.142-.524m923.092 1.486c-1.964.718-2.75 1.695-2.75 3.421 0 3.022 2.168 3.146 6.096.349 5.265-3.749 3.143-6.14-3.346-3.77m744.496-.008c-2.251 2.251-1.314 2.96 3.504 2.651 3.42-.22 4.75-.725 4.75-1.805 0-1.922-6.511-2.589-8.254-.846m-766.805 2.347c-1.905 1.472-1.897 1.538.42 3.5 3.182 2.695 8.139 2.71 8.139.025 0-1.175-1.195-2.592-2.95-3.5-3.587-1.855-3.244-1.853-5.609-.025m-885.096 1.042c-.872 2.274.143 2.776 4.108 2.032 2.132-.4 3.547-1.246 3.547-2.12 0-2.064-6.859-1.985-7.655.088M1638.5 448c2.749 1.181 4.328 1.181 2.5 0-.825-.533-2.175-.945-3-.914-.989.036-.819.347.5.914m5.05 2.829c.522.456 2.248 1.806 3.835 3 1.587 1.194 2.431 2.171 1.877 2.171s-1.225 2.265-1.491 5.033c-.314 3.266-1.236 5.833-2.627 7.314-1.179 1.255-2.144 2.801-2.144 3.436 0 .635-.64.909-1.422.609-1.501-.576-6.105 1.415-5.249 2.27.275.275 1.551-.017 2.835-.648 4.43-2.178-2.125 2.628-8.164 5.986-3.025 1.681-6.357 3.607-7.405 4.279l-6.977 4.471c-2.79 1.788-4.588 3.25-3.995 3.25.592 0 2.941-1.35 5.218-3 2.278-1.65 4.38-3 4.67-3 .291 0 2.207-1.049 4.259-2.331 2.051-1.282 6.781-3.997 10.511-6.034 9.322-5.092 17.1-9.505 24.021-13.628l3.802-2.266-3.076-1.87c-1.692-1.029-3.74-1.871-4.552-1.871-.812 0-1.476-.45-1.476-1s-.43-1-.956-1-3.246-1.35-6.044-3c-4.902-2.89-7.427-3.896-5.45-2.171m-3.519.912c.047 1.134 4.895 4.452 5.963 4.081.509-.177-.631-1.339-2.534-2.581-1.903-1.243-3.446-1.918-3.429-1.5m394.164 10.759c-.02 2.75.22 4.325.534 3.5.314-.825 1.066-1.837 1.671-2.25.795-.542.786-.958-.034-1.5-.624-.413-1.359-1.65-1.634-2.75-.275-1.1-.517.25-.537 3M1648 465.031c0 .533.675.969 1.5.969s1.5-.177 1.5-.393c0-.216-.675-.652-1.5-.969-.825-.316-1.5-.139-1.5.393m306.5 15.231c-3.176 3.181-3.788 3.665-27.708 21.886-8.411 6.407-18.584 14.839-22.607 18.737-6.103 5.915-19.158 16.581-26.82 21.913-1.783 1.241-1.777 1.269.135.645 4.932-1.609 19.061-1.561 24.5.084 3.025.914 9.1 2.02 13.5 2.456 16.562 1.642 25.126 5.411 33.411 14.707l5.089 5.709.013-20.949c.012-18.322.898-33.502 3.574-61.2.385-3.988.523-7.192.307-7.121-.217.07-1.744 1.48-3.394 3.133m-346.095 13.988l-1.905 2.25 2.25-1.905c1.237-1.048 2.25-2.06 2.25-2.25 0-.8-.805-.209-2.595 1.905m-6.405 3.254c-1.375.811-3.737 2.028-5.25 2.705-1.513.676-2.75 1.498-2.75 1.826 0 .329-2.695 1.885-5.988 3.459-3.294 1.575-5.8 3.052-5.568 3.283.231.231 3.038-.915 6.238-2.547 7.701-3.926 18.077-10.228 16.818-10.213-.55.007-2.125.676-3.5 1.487m-114.493 49.485c-.35.566.051.734.941.393 1.732-.665 2.049-1.382.611-1.382-.518 0-1.216.445-1.552.989m-464.167 3.071c-.694.694-.767 2.628-.209 5.611 1.352 7.239.05 7.925-6.494 3.423-3.164-2.177-4.651-2.666-5.93-1.95-2.192 1.227-2.148 2.65.293 9.596 2.474 7.038 2.472 7.26-.04 7.26-2.805 0-8.945 3.258-12.116 6.428-3.661 3.662-8.325 12.875-7.546 14.907.799 2.08 4.162 2.121 9.826.118 4.322-1.529 4.401-1.516 6.414 1 2.233 2.792 4.454 3.193 7.42 1.341 1.587-.991 2.289-.881 3.946.619 2.114 1.913 7.096 1.562 7.096-.499 0-.594.868-.773 2-.414 3.196 1.014 6-.36 6-2.942 0-2.588 3.447-3.791 8.214-2.865 2.346.455 2.946.039 4.43-3.073.944-1.98 2.53-3.858 3.524-4.173.994-.316 2.179-2.007 2.633-3.759.51-1.966 1.566-3.322 2.762-3.544 3.184-.59 4.437-2.201 4.437-5.703 0-2.974.539-3.603 5.25-6.128 9.13-4.892 7.55-8.068-5.667-11.397-6.075-1.529-14.307.139-18.63 3.777l-3.024 2.544-5.89-5.618c-6.159-5.875-6.962-6.296-8.699-4.559m6.86 15.14c-1.439 1.439-1.585 3.8-.235 3.8.891 0 3.035-3.132 3.035-4.434 0-.971-1.545-.621-2.8.634m-10.95 5.462c-2.32.937-1.271 2.338 1.75 2.338 3.206 0 4.03-1.391 1.418-2.393-.87-.334-1.657-.571-1.75-.528-.092.043-.73.306-1.418.583M155.498 596.75c-1.421 1.513-3.451 4.689-4.511 7.06l-1.927 4.309-4.53-2.654c-6.055-3.548-13.927-4.163-22.519-1.758-9.496 2.659-9.467 5.743.105 10.953 4.701 2.558 4.84 2.763 4.276 6.29-.622 3.89.468 5.535 4.108 6.201 1.37.251 2.107 1.308 2.338 3.358.437 3.858 1.839 5.491 4.717 5.491 1.431 0 2.552.76 2.944 1.998.791 2.491 4.999 3.663 7.048 1.963 1.933-1.605 5.576.131 6.989 3.329.868 1.964 1.742 2.188 8.756 2.247 5.248.044 8.146-.359 8.873-1.236 1.43-1.723 3.304-1.646 4.835.199 1.847 2.225 4.618 1.824 7.287-1.053l2.368-2.554 5.209 2.054c6.526 2.572 9.817 2.635 10.588.203.768-2.42-5.397-14.83-9.109-18.336-3.19-3.013-11.377-6.814-14.676-6.813-2.088 0-2.154-.328-1.818-8.994.298-7.66.103-9.088-1.309-9.63-1.81-.695-7.116 3.712-8.063 6.696-.343 1.08-1.23 1.543-2.382 1.242-1.361-.356-1.99-1.78-2.431-5.504-.574-4.843-1.997-7.811-3.746-7.811-.46 0-1.999 1.237-3.42 2.75M19 607.257v7.652l6.611 10.295A7634.76 7634.76 0 0034.485 639c15.687 24.253 27.585 43.431 32.259 52 1.351 2.475 4.949 8.536 7.998 13.469 3.048 4.933 6.631 10.92 7.962 13.304 1.331 2.384 6.78 10.896 12.108 18.915 5.329 8.02 10.546 16.078 11.594 17.909 1.049 1.83 2.235 3.125 2.637 2.876.402-.248.669.331.594 1.288-.095 1.202.48 1.649 1.863 1.447 1.514-.221 1.665-.066.622.638-.767.518-1.044 1.471-.625 2.149.58.939.976.907 1.722-.138.726-1.016.82-.897.376.474-.327 1.007.122 2.807.998 4l1.592 2.169-.649-2.5-.649-2.5 2.608 2.865c1.434 1.576 2.836 2.637 3.115 2.358.48-.479-12.33-22.841-14.567-25.431-.574-.664-1.043-1.507-1.043-1.873 0-.366-2.025-4.001-4.5-8.078-2.475-4.076-4.5-7.597-4.5-7.823 0-.441-13.794-23.717-17.493-29.518-1.227-1.925-4.349-7.1-6.937-11.5s-6.974-11.6-9.746-16c-2.773-4.4-11.009-17.9-18.302-30-7.294-12.1-15.795-26.026-18.891-30.947L19 599.606v7.651m134 4.672c0 1.202 2.869 4.071 4.071 4.071 1.321 0 1.151-2.378-.271-3.8-1.422-1.422-3.8-1.592-3.8-.271m11 5.688c0 1.188.596 1.457 2.25 1.013 1.238-.331 2.588-.609 3-.616.412-.008.75-.464.75-1.014s-1.35-1-3-1c-2.096 0-3 .487-3 1.617m390.373 7.855c-.657 1.71 1.936 7.376 4.785 10.455.912.985 2.631 3.699 3.82 6.029 1.189 2.331 2.438 3.962 2.775 3.624.338-.337.081-1.146-.57-1.797-1.491-1.491-1.595-6.156-.116-5.242.586.363.829.896.539 1.186-.29.29.749 2.383 2.31 4.65 1.56 2.268 2.929 4.573 3.043 5.123.302 1.455 1.041 2.011 1.041.783 0-.577 1.111-1.262 2.47-1.522 1.358-.26 2.232-.087 1.941.383-.291.471-.052.856.53.856.582 0 1.059.675 1.059 1.5 0 .898.903 1.488 2.25 1.47 2.021-.028 2.07-.135.486-1.058-1.589-.925-1.611-1.18-.222-2.569.849-.849 3.105-1.587 5.014-1.641 2.057-.058 3.472-.607 3.472-1.347 0-1.762-4.819-10.621-6.283-11.551-.946-.601-.938-.777.033-.789.688-.008 1.25-.465 1.25-1.015 0-.55-.638-1-1.417-1s-1.643-.562-1.921-1.25c-.403-1-.52-1-.583 0-.085 1.342-2.693 1.744-3.246.5-.693-1.559-10.026-5.25-13.276-5.25-1.865 0-3.635-.562-3.934-1.25-.299-.687-.302.1-.006 1.75.534 2.979.528 2.983-.79.579-1.664-3.036-3.634-3.746-4.454-1.607m1.706 2.111c.048 1.165.285 1.402.604.605.289-.722.253-1.585-.079-1.917-.332-.332-.568.258-.525 1.312m1.952 2.917c0 .55.436 1.675.969 2.5.533.825.969 1.05.969.5s-.436-1.675-.969-2.5c-.533-.825-.969-1.05-.969-.5m77.991 8.25c.012.413.902 1.875 1.978 3.25 1.287 1.646 1.952 1.987 1.946 1-.005-.825-.607-2.288-1.338-3.25-1.38-1.818-2.624-2.299-2.586-1m10.228 3.61c-2.274 1.126-3.031 2.64-1.321 2.64.926 0 4.071-2.759 4.071-3.571 0-.236-.112-.374-.25-.306-.138.067-1.263.624-2.5 1.237m-199.122 3.54c-.754.478-1.167 1.482-.917 2.232.316.949.819.681 1.657-.885 1.329-2.484 1.259-2.613-.74-1.347M282 649.748c-9.348 1.118-20.288 5.857-32.715 14.169-19.86 13.284-36.807 35.069-39.268 50.478-1.931 12.087 1.309 20.346 9.774 24.918 2.865 1.548 5.209 2.324 5.209 1.726 0-1.064 7.428-13.388 9.469-15.712 4.121-4.691 13.083-13.327 13.83-13.327.502 0 2.553-1.246 4.557-2.77 5.107-3.881 11.552-7.23 13.914-7.23 1.224 0 2.232.871 2.605 2.25.485 1.795-.451 3.271-4.633 7.306-2.883 2.781-7.042 6.369-9.242 7.973-5.949 4.338-7.787 6.365-11.764 12.971-6.906 11.471-8.512 21.929-5.317 34.625l1.919 7.624 5.197 2.549c2.858 1.402 7.909 3.082 11.224 3.734 5.703 1.122 6.196 1.061 9.179-1.144 3.06-2.263 7.238-8.909 10.02-15.941 2.202-5.566 10.165-17.989 11.143-17.384.495.305.899-.12.899-.945 0-2.018 1.212-2.637 3.826-1.953 2.817.736 2.751 1.452-.77 8.381-1.619 3.186-2.933 6.617-2.919 7.624.014 1.006-1.315 5.655-2.954 10.33-3.694 10.539-4.802 18.595-3.217 23.398 1.334 4.041 11.665 14.048 16.752 16.225 4.56 1.951 23.69 1.848 29.406-.16 11.945-4.195 23.039-11.992 24.319-17.092.327-1.304.924-2.371 1.326-2.37.402 0 .634-3.874.516-8.61-.182-7.273-.579-9.098-2.561-11.751-1.291-1.727-2.936-4.602-3.657-6.39-.72-1.788-1.675-3.25-2.121-3.25-.446 0-1.122-.978-1.501-2.173-.379-1.195-1.092-2.658-1.585-3.25-5.14-6.185-9.86-15.392-9.86-19.234 0-3.483-4.62-16.876-6.632-19.226-.917-1.071-2.227-3.448-2.911-5.282-2.767-7.42-3.982-10.359-4.481-10.835-1.055-1.007-6.976-12.814-6.976-13.911 0-1.817-6.236-14.089-7.159-14.089-.463 0-.841-.653-.841-1.45 0-.798-.573-1.81-1.274-2.25-.701-.44-2.014-1.925-2.918-3.3-.905-1.375-3.248-4.3-5.207-6.5-1.96-2.2-3.571-4.712-3.582-5.582-.022-1.802-5.21-3.626-9.019-3.17M582 650c0 .55 1.602 1 3.559 1 2.118 0 3.309-.405 2.941-1-.34-.55-1.941-1-3.559-1s-2.941.45-2.941 1m417.083-.739c.23.143 1.493 1.156 2.809 2.25l2.391 1.989-1.382-2.25c-.76-1.237-2.024-2.25-2.808-2.25-.785 0-1.239.117-1.01.261M1801 653.076c0 .592 1.8 10.513 4 22.046 2.2 11.534 4 22.144 4 23.579 0 2.425.123 2.497 1.75 1.016.963-.877 2.857-3.631 4.21-6.12 2.343-4.312 2.404-4.85 1.284-11.383-1.377-8.027-.737-13.458 1.863-15.811 1.158-1.048 4.219-1.863 8.114-2.16 4.499-.343 6.607-.98 7.511-2.27 1.585-2.263 10.725-7.935 13.033-8.088.954-.063-.065-.487-2.265-.942-6.175-1.278-43.5-1.163-43.5.133m-1216.187.607c.721.289 1.584.253 1.916-.079.332-.332-.258-.568-1.312-.525-1.165.048-1.402.285-.604.604m68.77.183c-.431.697-.513 1.537-.183 1.867.895.895 1.871-.421 1.387-1.871-.338-1.016-.574-1.016-1.204.004m10.031 2.571a1.534 1.534 0 001.969.893c2.086-.801 1.724-2.33-.552-2.33-1.3 0-1.781.488-1.417 1.437m-145.535 12.146c.048 1.165.285 1.402.604.605.289-.722.253-1.585-.079-1.917-.332-.332-.568.258-.525 1.312m-67.153 3.01c-1.04 1.249-.666 11 .466 12.132.924.924 14.734 3.315 15.7 2.718.385-.238.353-1.972-.072-3.854-.929-4.121-.458-4.33 11.839-5.266 7.621-.579 8.151-.753 6-1.962-6.315-3.551-15.345-5.481-24.19-5.171-4.858.171-9.242.802-9.743 1.403m68.65 2.407c.372 1.925 1.066 3.75 1.544 4.056.478.305-.141 4.569-1.375 9.475-1.966 7.811-2.651 9.192-5.506 11.102-5.532 3.702-14.065 3.939-24.731.686-1.814-.553-1.859-.447-.508 1.181 1.37 1.651 1.302 1.731-.883 1.037-1.629-.517-2.154-.406-1.683.356.376.609 1.284 1.107 2.018 1.107 1.795 0 2.294 1.581 3.044 9.648.538 5.785.316 7.469-1.429 10.813-1.137 2.179-2.081 4.654-2.099 5.5-.037 1.828-4.421 7.039-5.92 7.039-.576 0-1.048.675-1.048 1.5s-.562 1.534-1.25 1.577c-.687.042-2.15.304-3.25.582-1.1.279-2.787.566-3.749.638-1.262.095-1.589.699-1.173 2.167.338 1.193-.25.736-1.42-1.105-1.098-1.727-2.552-3.484-3.231-3.904-.68-.42.139 1.218 1.819 3.641 4.077 5.88 21.865 23.019 38.273 36.878 3.565 3.01 6.706 5.726 6.981 6.034.885.992 14.427 10.453 16.637 11.624 1.176.623 4.551 1.911 7.5 2.863 2.95.953 6.287 2.308 7.417 3.013 2.955 1.843 16.787 6.021 24.849 7.505 10.886 2.004 25.615.786 36.322-3.004 4.826-1.709 10.916-3.778 13.533-4.599 5.16-1.618 17.742-9.08 17.742-10.522 0-.488.527-.888 1.171-.888 1.397 0 14.251-13.052 15.143-15.377.343-.893 1.135-1.623 1.762-1.623.626 0 .879-.675.562-1.5-.316-.825-.212-1.5.233-1.5.66 0 3.129-4.268 3.129-5.41 0-.174-2.925-.551-6.5-.838-3.575-.287-7.609-1.248-8.965-2.137-1.355-.888-3.845-1.615-5.531-1.615-1.687 0-3.297-.6-3.578-1.333-.282-.734-1.055-1.334-1.719-1.334-.664 0-3.007-.804-5.207-1.785-2.2-.982-5.442-2.418-7.203-3.191-1.762-.774-3.787-1.964-4.5-2.645-2.017-1.926-7.187-5.157-8.297-5.186-.55-.014-1.417-1.713-1.926-3.776-.51-2.062-1.297-3.75-1.75-3.75-.453 0-.824-.64-.824-1.423s-1.165-2.808-2.589-4.5c-2.012-2.392-2.235-3.077-1-3.077 1.182 0 1.589-1.004 1.589-3.917 0-2.154.337-4.066.75-4.25.413-.183 1.526-1.683 2.475-3.333.948-1.65 2.21-2.879 2.803-2.732.594.147 1.817-.47 2.719-1.372 1.52-1.52 1.502-1.741-.245-3.018-1.39-1.017-1.507-1.396-.443-1.448.907-.045.7-.412-.559-.992-1.367-.63.61-.842 6.25-.672 6.011.181 8.25-.086 8.25-.985 0-1.442 7.863-5.484 9.136-4.697 1.49.921.941-1.842-.733-3.692-1.495-1.651-1.35-1.814 2.25-2.536 2.116-.424 6.847-.79 10.514-.813 3.666-.024 6.549-.16 6.406-.303-1.852-1.853-19.522-9.24-22.102-9.24-4.135 0-7.758 3.373-6.924 6.445.514 1.89.394 1.866-1.494-.306-1.577-1.813-2.053-1.987-2.053-.75 0 .886-.45 1.611-1 1.611s-1-.73-1-1.622c0-1.495-.176-1.494-2.25.004-1.237.895-4.388 2.609-7 3.81-2.612 1.2-4.75 2.665-4.75 3.255 0 .589-.9 1.634-2 2.321-1.1.687-2 .836-2 .331 0-.505-1.84-.028-4.09 1.058-3.341 1.615-4.649 1.781-7.149.91-1.683-.587-4.08-1.067-5.327-1.067-1.309 0-3.134-1.162-4.319-2.75-1.128-1.513-2.066-2.187-2.083-1.5-.018.688-.905 1.25-1.973 1.25s-2.219.449-2.558.999c-.811 1.311-10.247.209-13.501-1.577-1.375-.755-3.288-1.661-4.25-2.014-.962-.353-1.75-1.264-1.75-2.025 0-.76-.437-1.383-.97-1.383-.534 0-1.996-1.797-3.25-3.992-1.254-2.196-2.654-3.996-3.112-4-.457-.005-2.82-1.637-5.25-3.628-2.43-1.992-4.418-3.143-4.418-2.559 0 .583.408 1.313.906 1.621.498.308.671 1.46.383 2.559-.407 1.558-1.364 1.999-4.334 1.999-2.097 0-4.487-.675-5.312-1.5-1.826-1.826-2.369-1.872-2.924-.25-.235.688-.269.275-.075-.917.194-1.192.002-2.317-.427-2.5-.428-.183-1.575-1.908-2.547-3.833l-1.769-3.5.675 3.5m-44.433 20.773c-.747.256 1.218 1.334 4.366 2.397 3.147 1.063 5.97 1.684 6.273 1.381.303-.303-.161-.551-1.032-.551s-1.733-.449-1.917-.998c-.421-1.263-5.888-2.847-7.69-2.229M765 715.378c0 .207.788.995 1.75 1.75 1.586 1.243 1.621 1.208.378-.378-1.307-1.666-2.128-2.195-2.128-1.372m835.592.364l-4.909.381 5.409 3.228c2.974 1.776 7.433 3.797 9.908 4.49 2.475.694 5.698 1.727 7.163 2.295 2.564.996 2.613 1.156 1.308 4.28-1.211 2.897-1.148 3.586.587 6.439 2.385 3.922 5.111 5.016 14.475 5.807 6.898.583 7.416.479 9.874-1.978 5.215-5.215 1.722-14.819-5.911-16.251-2.448-.459-3.468-1.229-3.69-2.784-.198-1.39-1.883-2.944-4.768-4.399-3.842-1.937-5.856-2.225-14.5-2.07-5.521.099-12.247.352-14.946.562M772.25 719.36c-3.291 1.63-2.748 2.71.75 1.49 1.65-.575 3-1.452 3-1.948 0-1.097-.81-.998-3.75.458m3.75 1.353c-3.299 1.222-4.111 2.486-2.399 3.737 1.275.933 2.341.851 4.978-.382 1.846-.862 3.371-2.13 3.388-2.818.033-1.264-3.213-1.556-5.967-.537m4.25 3.647c-3.273 1.621-2.763 3.528 1.411 5.272 2.796 1.168 4.156 1.269 5.75.428 1.962-1.035 1.936-1.072-.419-.622-2.814.537-5.845-.793-4.168-1.829.571-.353 1.308-.204 1.639.331.83 1.343 3.537.16 3.537-1.547 0-.766-.9-1.393-2-1.393s-2-.45-2-1c0-1.195-.757-1.122-3.75.36m-253.163 5.837c-4.162 5.659-4.119 10.036.163 16.431 4.154 6.205 7.51 7.841 15.75 7.679 5.417-.107 6.916.243 9 2.1 3.442 3.068 6.659 4.897 12.367 7.029 13.08 4.887 31.377-3.343 34.677-15.598 1.409-5.235.752-13.72-1.157-14.929-2.26-1.431-4.903-1.034-5.604.841-2.004 5.364-8.647 13.248-12.895 15.304-4.103 1.986-5.067 2.087-10.209 1.064-4.578-.91-6.387-1.891-9.328-5.058-5.021-5.405-11.915-7.206-17.874-4.669-1.042.444-1.923-.227-2.787-2.121-3.107-6.807-6.769-12.27-8.226-12.27-.435 0-2.18 1.889-3.877 4.197m1033.646-3.073c.679.684 1.486.991 1.793.683.308-.308-.247-.867-1.233-1.243-1.425-.542-1.54-.428-.56.56m3.267 1.899c0 .572.694 1.306 1.543 1.632 2.346.9 2.621-.072.412-1.451-1.238-.773-1.955-.839-1.955-.181m4.869 4.319c.612.738.932 1.526.71 1.75-.222.224.921.457 2.54.516l2.943.108-3.055-1.858c-3.609-2.194-4.677-2.37-3.138-.516m-73.869.954c-6.873 1.076-7.96 1.822-7.985 5.479-.019 2.824 4.102 4.613 8.657 3.759 2.243-.421 3.435-.165 4.01.861.45.802 2.476 2.73 4.502 4.282 2.026 1.553 6.813 5.582 10.637 8.954 5.218 4.6 8.583 6.673 13.48 8.303 3.589 1.194 6.789 2.859 7.112 3.7 2.061 5.37-1.337 9.366-7.963 9.366-5.352 0-9.122-1.766-15.95-7.473-5.143-4.299-23.571-13.763-29.124-14.958-6.135-1.321-9.272-7.124-9.492-17.562-.064-3.029-.312-4.768-.553-3.864-.297 1.117-1.113 1.465-2.552 1.089-1.784-.467-1.984-.253-1.274 1.357 4.792 10.868 9.451 29.107 9.478 37.102.009 2.855.372 5.41.805 5.678.434.268 2.297-1.055 4.141-2.941 1.843-1.885 3.719-3.428 4.167-3.428 1.964 0 11.954 6.691 18.069 12.102 3.666 3.244 7.138 5.898 7.717 5.898 1.601 0 13.829 12.872 17.369 18.284 2.263 3.459 3.562 4.594 4.689 4.1.858-.377 5.312-1.079 9.897-1.56 10.065-1.057 25.675-4.996 32.89-8.299 5.198-2.38 6.892-4.525 3.574-4.525-.935 0-3.811-2.25-6.393-5s-5.035-5-5.45-5c-1.071 0-10.91-10.509-15.683-16.75-2.208-2.888-4.411-5.25-4.895-5.25s-.88-.714-.88-1.587-1.339-2.092-2.975-2.71c-1.637-.617-3.414-2.266-3.95-3.663-1.11-2.896-5.522-8.04-6.896-8.04-.505 0-1.189-1.677-1.522-3.726-.351-2.161-1.56-4.468-2.881-5.494l-2.276-1.767 2.239-.62c4.068-1.127 1.33-2.256-4.109-1.694-6.021.621-12.259-1.008-14.747-3.851-1.814-2.072-5.379-2.196-15.883-.552m81.333 3.204c0 .72.6 1.079 1.334.798.733-.282 1.333-.641 1.333-.798 0-.157-.6-.516-1.333-.798-.734-.281-1.334.078-1.334.798M1634.5 756c-.34.55-.168 1 .382 1s1.278-.45 1.618-1c.34-.55.168-1-.382-1s-1.278.45-1.618 1m-1243.421 5.583c.048 1.165.285 1.402.604.605.289-.722.253-1.585-.079-1.917-.332-.332-.568.258-.525 1.312m929.825 11.183c-3.078 4.804-7.281 12.559-9.339 17.234-4.074 9.251-15.433 31.354-21.841 42.5-8.97 15.604-11.625 20.309-15.232 27-3.755 6.963-3.759 6.986-.883 4.386 4.842-4.377 17.603-12.886 19.325-12.886.892 0 2.558-.656 3.703-1.458 1.145-.802 5.183-1.952 8.973-2.554 3.789-.602 11.165-2.173 16.39-3.491 5.225-1.319 11.75-2.687 14.5-3.042s8.771-1.277 13.381-2.05c4.61-.773 10.424-1.405 12.921-1.405 2.876 0 5.231-.625 6.425-1.706 1.561-1.412 2.226-1.492 3.87-.466 1.091.682 2.529.899 3.194.482.665-.417 3.229-.995 5.698-1.284 6.156-.721 6.447-3.05.983-7.842-14.588-12.793-26.8-28.547-29.987-38.684-.692-2.2-2.287-6.025-3.545-8.5-2.023-3.979-3.02-4.776-8.614-6.886-3.479-1.312-7.966-3.675-9.97-5.25-2.004-1.575-3.804-2.857-4-2.848-.196.008-2.874 3.946-5.952 8.75m-926.671.309c.286 2.969.137 4.538-.356 3.76-.576-.908-.851-.414-.862 1.546-.021 4.061 5.439 19.476 10.288 29.042 6.107 12.049 15.975 25.141 18.005 23.887.55-.34.717-.16.37.402-.347.561.259 1.826 1.346 2.809 2.14 1.938 2.777.704.726-1.407-1.008-1.038-.863-1.227.75-.977 2.028.315 7.5-4.275 7.5-6.291 0-.644 1.019-.807 2.584-.414 3.118.782 3.034.618-4.556-8.959-3.063-3.865-7.294-10.615-9.402-15-6.545-13.613-8.095-16.473-8.933-16.473-.446 0-.521-.47-.166-1.044.355-.574-.068-2.133-.941-3.465-.872-1.331-1.6-3.449-1.616-4.706-.028-2.076-.127-2.12-1.079-.483-.748 1.285-.715 2.205.113 3.202.639.77.869 2.322.511 3.448-.378 1.191-.203 2.048.418 2.048.587 0 1.067.873 1.067 1.941s.45 2.219 1 2.559c.55.34 1 1.69 1 3s.45 2.66 1 3c1.167.721 1.345 2.504.25 2.492-.898-.009-3.25-4.852-3.25-6.691 0-.716-.348-1.301-.773-1.301-.77 0-3.098-7.54-3.606-11.68-.147-1.2-1.292-3.675-2.544-5.5-1.755-2.559-3.086-3.379-5.805-3.579l-3.528-.26.489 5.094m296.858 6.574c-1.229.861-2.569 2.468-2.977 3.572-.725 1.959-.788 1.963-2.622.143-1.297-1.285-1.694-1.398-1.282-.364 2.01 5.04 1.994 5.522-.095 3-1.139-1.375-2.081-2.118-2.093-1.651-.048 1.832 3.271 7.651 4.364 7.651.637 0 4.963 2.475 9.614 5.5 4.651 3.025 8.822 5.5 9.269 5.5 1.754 0 22.721 10.891 24.064 12.5.464.555.602-.369.311-2.075-.288-1.691-1.336-9.791-2.329-18-1.506-12.455-1.904-14.18-2.409-10.425-.333 2.475-.673 3.514-.756 2.309-.176-2.567-1.755-3.878-2.486-2.065-.278.691-.542.195-.585-1.101-.051-1.523-.546-2.178-1.4-1.85-.727.279-3.764-.201-6.75-1.065-2.986-.865-8.129-1.607-11.429-1.65-3.3-.043-6.489-.397-7.087-.786-.598-.39-2.093-.004-3.322.857M355.5 785c.34.55.816 1 1.059 1s.441-.45.441-1-.477-1-1.059-1-.781.45-.441 1m7.5 20.274c-5.783 5.381-21.422 17.505-24.231 18.785-2.109.961-3.341 3.179-6.288 11.318-2.015 5.568-3.904 12.635-4.196 15.705l-.532 5.581 4.373 3.529c8.76 7.067 7.726 6.761 32.874 9.731 3.575.422 7.4 1.137 8.5 1.588 1.62.665 1.542.44-.411-1.184l-2.41-2.006 2.16-2.16c1.189-1.189 2.514-2.161 2.945-2.161 1.199 0 4.216-5.557 4.216-7.765 0-1.076 1.181-3.697 2.625-5.824 3.845-5.666 5.375-10.839 5.375-18.171 0-7.332-1.478-13.449-4.213-17.439-1.365-1.991-15.906-12.856-17.121-12.792-.091.004-1.741 1.474-3.666 3.265m600.071-.15c-1.031 1.696-2.179 5.11-2.551 7.589-.673 4.488-.688 4.503-3.848 3.671-1.744-.459-6.097-.82-9.672-.802-5.482.027-7.4.547-12.25 3.321-8.018 4.585-7.626 6.657 1.75 9.263 4.42 1.229 5.039 1.735 5.338 4.362.451 3.956 1.854 5.472 5.065 5.472 2.036 0 2.924.703 3.791 3 .907 2.404 1.721 3 4.097 3 1.63 0 3.524.675 4.209 1.5 1.655 1.994 4.673 1.906 5.835-.169.815-1.457 1.331-1.505 4.049-.379 1.714.71 3.116 1.638 3.116 2.062 0 1.644 3.26 1.903 6.014.479 1.588-.821 3.851-1.493 5.029-1.493s3.302-.913 4.721-2.029c1.767-1.39 2.902-1.705 3.607-1 1.812 1.812 4.062 1.129 6.649-2.018 2.459-2.991 2.635-3.039 7.291-1.995 4.901 1.098 8.689.179 8.689-2.109 0-2.216-7.427-11.094-11.392-13.617-3.168-2.016-5.595-2.671-10.608-2.862l-6.5-.248-.757-5.311c-1.616-11.349-4.965-13.976-7.712-6.05-2.131 6.148-5.046 5.88-7.405-.682-2.221-6.174-4.086-7.015-6.555-2.955m630.429 10.845c-6.05 2.705-11 5.154-11 5.442 0 1.379 3.68 4.587 5.24 4.567 3.421-.043 10.024-3.803 12.501-7.119 2.44-3.267 5.119-7.885 4.544-7.833-.157.014-5.235 2.238-11.285 4.943m-953.311-.896c-3.471.45-10.242 1.95-15.047 3.333-4.805 1.382-12.09 3.023-16.189 3.646-12.308 1.87-24.333 8.815-38.585 22.283-12.587 11.896-17.633 19.574-21.48 32.683-2.107 7.18-3.125 12.903-3.232 18.169-.152 7.486-.067 7.778 3.272 11.231 8.021 8.294 18.447 7.616 24.577-1.598 4.541-6.827 16.724-18.419 21.778-20.721 5.522-2.516 8.563-2.824 6.791-.688-1.457 1.755.042 2.859 2.586 1.905 1.682-.631 1.711-.526.34 1.222-.825 1.052-2.829 3.048-4.452 4.437-4.344 3.714-6.204 5.901-10.332 12.146-2.044 3.091-5.184 7.333-6.978 9.425-3.748 4.371-3.711 7.194.206 15.954 4.462 9.976 9.968 14.267 21.317 16.611 5.826 1.204 6.432 1.142 11.405-1.17 6.113-2.841 14.067-8.613 21.818-15.833 5.858-5.457 6.525-5.803 7.433-3.858.466 1 .7 1 1.166 0 .321-.687 1.198-1.25 1.949-1.25 1.762 0-.126 4.739-4.882 12.255-1.826 2.885-4.604 7.632-6.173 10.549l-2.854 5.304 2.784 8.549c3.073 9.437 7.061 14.794 14.009 18.82 12.021 6.965 34.488 5.49 47.696-3.13 10.198-6.656 12.328-9.032 14.65-16.347 2.013-6.342 3.926-20.605 2.213-16.5-.651 1.561-.85 1.137-.905-1.934-.074-4.143-2.943-15.713-4.108-16.566-.376-.275-1.444-1.986-2.375-3.801-.93-1.816-2.343-3.552-3.139-3.857-.797-.306-1.448-1.197-1.448-1.98 0-.784-.72-1.701-1.6-2.039-1.674-.642-2.857-1.666-11.275-9.764-4.811-4.627-7.105-9.089-7.119-13.849-.003-.984-.906-3.554-2.006-5.71-1.1-2.156-2-4.576-2-5.377 0-.801-.337-1.606-.75-1.79-.413-.183-1.53-2.02-2.484-4.083-.953-2.062-2.416-3.75-3.25-3.75a1.512 1.512 0 01-1.516-1.5c0-.825-.45-1.5-1-1.5-1.912 0-5-4.015-5-6.5 0-1.375-.45-2.5-1-2.5s-1.004.563-1.009 1.25c-.005.688-1.116-1-2.469-3.75-1.41-2.866-2.473-6.814-2.491-9.25-.022-2.985-.453-4.25-1.448-4.25-.779 0-1.661.563-1.96 1.25-.299.688-.308.092-.019-1.324.335-1.642-.042-3.045-1.04-3.873-.86-.714-1.564-1.918-1.564-2.675 0-.758-.393-1.378-.873-1.378-1.623 0-1.987-10.284-.448-12.633 1.165-1.778 1.188-2.338.125-3.024-.844-.546.459-1.052 3.696-1.436 4.634-.549 4.488-.595-2-.623-3.85-.017-9.84.338-13.311.789m323.475 3.596c-.889.889 2.282 4.331 3.991 4.331 1.669 0 1.753-2.192.145-3.8-1.329-1.329-3.109-1.557-4.136-.531M1825 819c0 .55.423 1 .941 1s1.219-.45 1.559-1c.34-.55-.084-1-.941-1s-1.559.45-1.559 1m-10.55 1.081c-.455.736-.348 1.453.246 1.651 1.87.623-.794 18.268-2.759 18.268-.441 0-1.088.9-1.437 2-.522 1.644-1.513 2-5.567 2-4.266 0-4.933.27-4.933 2 0 1.1-.525 2-1.166 2-.641 0-1.879.653-2.75 1.45-.871.798-2.986 2.71-4.699 4.25-1.713 1.54-3.418 3.772-3.789 4.96-.37 1.188-1.331 2.705-2.135 3.372-.803.667-1.461 2.481-1.461 4.031 0 1.551-.416 3.076-.924 3.39-.507.314-1.656 2.776-2.551 5.471-.895 2.696-2.28 5.152-3.076 5.457-.937.36-1.449 1.995-1.449 4.628 0 2.641-.782 5.13-2.226 7.083-1.829 2.474-1.977 3.165-.829 3.874 1.173.725 1.121 1.284-.327 3.494-.948 1.447-1.464 3.451-1.145 4.454.971 3.06-1.328 7.259-6.523 11.915-5.361 4.805-6.025 6.171-3.001 6.171 1.072 0 3.114 1.528 4.538 3.395 2.679 3.511 7.648 6.257 9.384 5.185.545-.337 1.292-.126 1.659.469.45.727 1.246.559 2.432-.515.97-.878 2.734-1.783 3.92-2.011 5.551-1.069 18.684-23.046 25.444-42.575.847-2.446 2.717-7.598 4.156-11.448 1.44-3.85 3.027-9.396 3.527-12.324.501-2.928 2.189-7.428 3.752-10 7.016-11.543 11.818-31.031 7.239-29.378-1.049.378-.898-.156.5-1.774l2-2.315-2.123 1.113c-1.167.612-3.192.881-4.5.598-7.022-1.52-8.661-1.579-9.427-.339m-839.825.717c-.271.439-.111 1.415.356 2.171.705 1.141 1.284 1.087 3.434-.321 1.422-.932 2.585-1.909 2.585-2.171 0-.816-5.854-.522-6.375.321m590.875 4.259c-2.2.455-9.566.854-16.369.885l-12.368.058 2.618 3.433c1.441 1.889 2.619 3.972 2.619 4.629 0 .877 1.671 1.006 6.25.484 3.438-.391 11.088-.668 17-.615 5.912.054 10.75-.077 10.75-.29 0-1.78-4.357-9.616-5.297-9.526-.662.063-3.003.487-5.203.942M428 833.393c0 .216.675.652 1.5.969.825.316 1.5.139 1.5-.393 0-.533-.675-.969-1.5-.969s-1.5.177-1.5.393m1260 52.638c0 .533.675.969 1.5.969s1.5-.177 1.5-.393c0-.216-.675-.652-1.5-.969-.825-.316-1.5-.139-1.5.393m3.5 1.969c-1.63.701-1.688.872-.309.93.93.038 1.969-.38 2.309-.93.711-1.15.676-1.15-2 0m2 2l-3 .763 2.691.119c1.48.065 2.969-.332 3.309-.882.34-.55.479-.947.309-.882-.17.065-1.659.462-3.309.882m2 3c-1.908.82-1.897.863.25.93 1.237.038 2.25-.38 2.25-.93s-.112-.968-.25-.93c-.138.039-1.15.457-2.25.93m-15.5 3.738c0 .709-1.463 2.621-3.25 4.247-2.489 2.264-2.84 2.963-1.5 2.986 1.518.025 1.75 1.088 1.75 8.029 0 6.444.292 8 1.5 8 1.083 0 1.5 1.111 1.5 4v4h5c3.986 0 5-.336 5-1.655 0-1.54.127-1.54 1.829 0 1.006.91 2.918 1.662 4.25 1.67 1.707.011 2.028.265 1.087.861-1.057.67-.976.983.393 1.508.95.365 1.933.457 2.184.206.866-.866-.836-2.54-4.208-4.14-1.859-.883-3.608-2.198-3.886-2.923-.628-1.635 7.898-5.372 11.129-4.879 2.218.339 2.208.266-.803-5.698-1.678-3.323-3.596-6.193-4.263-6.378-.666-.185-3.012-.726-5.212-1.204-3.556-.772-4.009-1.201-4.082-3.868-.14-5.074-.299-5.279-4.418-5.671-2.797-.267-4 .006-4 .909m-1352.287 6.363c-.983.572-3.338 2.591-5.233 4.486-1.896 1.896-3.792 3.439-4.213 3.43a.85.85 0 00-.851.733c-.046.413-.548 1.875-1.116 3.25-2.96 7.172-12.362 36.778-13.407 42.22-.663 3.454-1.202 12.58-1.197 20.28.009 13.556.129 14.349 3.769 25 2.068 6.05 4.217 11.287 4.776 11.638.558.351.764 1.045.456 1.543-.307.497.763 1.005 2.378 1.128 1.924.146 2.848-.213 2.68-1.043-.154-.763 2.228-2.046 5.995-3.228 3.438-1.079 6.25-2.542 6.25-3.25 0-.708 1.077-1.288 2.393-1.288 1.316 0 2.632-.623 2.924-1.384.292-.762 2.723-2.375 5.401-3.585 3.478-1.572 4.915-2.815 5.031-4.348.089-1.181.679-3.281 1.312-4.665 2.888-6.323 3.814-8.709 4.375-11.268.331-1.513 1.044-2.75 1.583-2.75.54 0 .981-2.663.981-5.917 0-3.477.462-6.07 1.12-6.29 1.536-.512 1.508-40.565-.03-42.103-.6-.6-1.09-2.25-1.09-3.667 0-1.418-.608-3.466-1.351-4.55-.743-1.085-1.645-3.098-2.006-4.473-1.33-5.079-11.015-12.634-12.7-9.907-.505.816-.879.82-1.377.014-.854-1.381-4.485-1.385-6.853-.006m1366.537 4.588c.963.252 1.75.875 1.75 1.384 0 .51.505.927 1.122.927.776 0 .738-.464-.122-1.5-.685-.825-1.977-1.448-2.872-1.384-1.374.098-1.354.187.122.573m4.82 5.561c-.038 1.513.38 2.75.93 2.75 1.174 0 1.174-.769 0-3.5-.762-1.772-.867-1.687-.93.75m-50.798 2.75c0 2.475.195 3.487.434 2.25.238-1.237.238-3.263 0-4.5-.239-1.237-.434-.225-.434 2.25M189 928.893c0 7.888-1.839 8.663-7.463 3.143-4.617-4.531-5.998-4.912-7.515-2.077-.985 1.841-.8 3.575 1.456 13.597.404 1.795-.265 2.207-5.258 3.247-7.679 1.598-11.08 3.868-16.654 11.111-3.531 4.589-4.529 6.627-4.024 8.219.619 1.951 1.115 2.059 6.315 1.374 9.339-1.229 9.478-1.206 10.969 1.86 1.279 2.627 1.736 2.821 5.477 2.319 3.121-.418 4.757-.068 6.944 1.49 2.74 1.951 2.943 1.962 4.811.272 1.601-1.449 2.395-1.563 4.434-.634 3.156 1.438 5.367.596 6.1-2.323.632-2.518 5.11-3.797 7.876-2.249 2.234 1.25 5 .12 6.482-2.648.698-1.305 2.369-2.874 3.713-3.486 1.344-.612 2.913-2.462 3.488-4.111.823-2.36 1.635-2.997 3.824-2.997 3.47 0 5.407-2.223 4.783-5.488-.592-3.094.362-3.908 7.265-6.196 4.533-1.503 5.477-2.215 5.477-4.127 0-1.88-1.214-2.856-6.5-5.222-9.217-4.128-21.053-3.771-25.595.771-1.55 1.55-1.793 1.496-3.589-.788-6.624-8.422-9.133-10.95-10.866-10.95-1.713 0-1.95.717-1.95 5.893m1515.079 5.69c.048 1.165.285 1.402.604.605.289-.722.253-1.585-.079-1.917-.332-.332-.568.258-.525 1.312m-451.064 3.274c-.008.746-.624 1.123-1.367.838-2.864-1.099-9.018 25.106-14.164 60.305-.845 5.775-1.731 11.175-1.969 12-1.494 5.169-3.606 33.055-3.547 46.828.074 17.08.825 20.953 4.739 24.436 1.915 1.705 2.107 1.648 5.638-1.682 2.01-1.896 3.655-3.954 3.655-4.574 0-.619.427-.862.95-.539 1.181.73 3.245-2.912 2.265-3.998-.393-.435-.202-.498.425-.14 2.708 1.547 6.713-14.548 7.796-31.331.302-4.675 1.002-10.074 1.557-11.997.555-1.923 1.741-11.148 2.635-20.5 1.748-18.268 1.364-52.678-.685-61.442-.948-4.054-3.062-6.773-5.331-6.857-.489-.018-1.269-.634-1.735-1.369-.702-1.107-.849-1.104-.862.022M194.75 939.392c-1.79 1.359-2.428 4.608-.905 4.608 1.201 0 4.155-3.433 4.155-4.829 0-1.512-1.063-1.439-3.25.221m316.602 1.601c-2.812 1.135-3.933 3.007-1.8 3.007 1.32 0 1.176.4-.687 1.908l-2.357 1.909 2.996-.39c2.811-.366 2.842-.335.496.492-1.375.485-3.85.979-5.5 1.097-2.085.15-2.39.347-1 .645 3.848.824 11.081 3.605 20.852 8.019 5.419 2.447 10.096 4.206 10.393 3.908.298-.298-.097-.786-.876-1.085-.998-.383-1.303-1.747-1.03-4.609.235-2.467-.285-5.557-1.324-7.86-1.392-3.089-2.112-3.692-3.863-3.241-1.91.492-1.998.366-.78-1.12 1.244-1.515.985-1.673-2.75-1.673-2.267 0-4.122-.45-4.122-1 0-1.208-5.659-1.212-8.648-.007M1700 942c0 .55.9 1 2 1s2-.45 2-1-.9-1-2-1-2 .45-2 1m5.079.583c.048 1.165.285 1.402.604.605.289-.722.253-1.585-.079-1.917-.332-.332-.568.258-.525 1.312m7.921.358c0 .518.445 1.216.989 1.552.566.35.734-.051.393-.941-.665-1.732-1.382-2.049-1.382-.611m-1530.75.721c-2.489 1.005-1.307 3.338 1.691 3.338 3.643 0 4.773-1.548 2.153-2.95-1.079-.577-2.105-1.014-2.278-.971-.174.043-.878.306-1.566.583m1515.353.171c-.283.459.12.834.897.834s1.18-.375.897-.834c-.283-.458-.687-.833-.897-.833-.21 0-.614.375-.897.833m13.989 4.018c-.322.522-.496 2.039-.386 3.371.158 1.909.663 2.335 2.379 2.006 1.556-.297 2.039-.951 1.689-2.289-.637-2.435-2.908-4.34-3.682-3.088m-7.592 6.243c0 .498.675.906 1.5.906s1.5.45 1.5 1 .436 1 .969 1c.532 0 .726-.631.43-1.401-.611-1.594-4.399-2.89-4.399-1.505m9.5.906c-1.63.701-1.688.872-.309.93.93.038 1.969-.38 2.309-.93.711-1.15.676-1.15-2 0m-84.36 4.204c-1.847.5-3.564.705-3.814.456-.843-.843-8.148 7.07-10.128 10.971-7.358 14.499-14.587 35.426-16.843 48.758-1.673 9.887-1.67 10.498.069 15.052 1.648 4.315 2.052 4.694 4.445 4.17 16.102-3.528 35.005-2.735 44.051 1.848l4.913 2.49 2.083-3.532c1.146-1.942 2.084-3.999 2.084-4.57 0-.571.962-2.389 2.137-4.039 1.963-2.758 2.091-3.867 1.567-13.655-.759-14.188-3.87-23.815-12.149-37.599-3.557-5.923-7.093-11.284-7.857-11.912-.764-.628-1.97-2.622-2.681-4.43-1.628-4.145-3.624-5.161-7.877-4.008m58.092 2.796c.927 1.484 2.332 2 5.45 2 2.31 0 4.478-.45 4.818-1 .381-.616-1.323-1-4.441-1-2.782 0-5.059-.45-5.059-1s-.454-1-1.008-1c-.598 0-.5.814.24 2m-463.667 4.268c-.993 2.328-3.283 7.607-5.089 11.732a1390.43 1390.43 0 00-5.574 12.916c-1.26 2.979-2.466 4.892-2.68 4.25-.751-2.253-2.049-1.125-3.549 3.084-10.37 29.096-18.44 52.996-24.826 73.525-.56 1.802-2.065 4.519-3.343 6.038-2.616 3.108-4.316 8.509-7.928 25.187-6.239 28.806-8.896 42.37-11.617 59.295-1.61 10.013-4.056 24.505-5.436 32.205-1.38 7.7-2.512 15.2-2.516 16.667-.004 1.466-.393 2.816-.865 3-1.209.47-4.236 32.105-5 52.256-.418 11.007-.245 19.223.492 23.5.997 5.776 6.394 23.695 7.844 26.042.292.472 1.828.368 3.414-.23 1.924-.727 4.669-3.772 8.246-9.15 6.469-9.724 25.355-28.971 36.362-37.056 4.4-3.232 8.198-6.033 8.44-6.226.241-.192-.549-1.041-1.756-1.887-3.078-2.155-5.24-6.764-5.532-11.788-.157-2.699-1.025-5.112-2.351-6.535-3.001-3.221-4.24-18.377-1.876-22.948 1.556-3.009 1.52-3.271-.974-7.04l-2.591-3.915 2.705-6.76c2.535-6.336 2.596-6.839.97-8.028-1.403-1.026-1.597-2.092-1.016-5.585 1.11-6.68 2.474-8.566 14.73-20.362 15.738-15.148 26.567-20.55 44.496-22.198l8.245-.757-3.418-5.5c-9.402-15.132-10.648-17.464-10.371-19.404.59-4.132 7.792-2.667 21.903 4.456 3.354 1.694 6.284 2.893 6.512 2.666.227-.228-2.924-6.902-7.002-14.832-4.078-7.931-8.401-17.665-9.606-21.632l-2.19-7.213-4.326 5.31c-7.199 8.838-12.479 11.274-20.639 9.524-5.724-1.227-10.198-4.647-12.759-9.751-9.341-18.618-10.755-51.039-3.646-83.624 1.32-6.05 2.697-13.7 3.059-17 .362-3.3 1.334-10.425 2.158-15.834.825-5.409 1.321-10.013 1.102-10.232-.219-.219-1.21 1.506-2.202 3.834m-307.898 1.399c-.367.366-.667 2.616-.667 5 0 5.227-1.215 5.486-5.636 1.201-5.43-5.263-7.682-2.246-5.461 7.314l.856 3.683-4.13.687c-6.36 1.059-10.823 3.798-14.476 8.884-4.605 6.413-3.823 7.953 3.603 7.098 5.354-.617 5.812-.505 6.744 1.652.801 1.853 1.778 2.314 4.909 2.314 2.234 0 4.091.536 4.333 1.25.507 1.493 3.881 1.668 4.76.247.414-.67 1.241-.67 2.493 0 2.87 1.536 3.946 1.226 5.187-1.497 1.224-2.687 3.686-3.176 7.013-1.396 1.726.924 2.41.699 4.184-1.376 1.167-1.365 2.915-2.75 3.886-3.079.971-.329 2.173-1.671 2.672-2.983.586-1.542 1.994-2.602 3.985-3 2.604-.521 3.078-1.071 3.078-3.57 0-2.72.435-3.081 5.5-4.553 7.164-2.083 7.226-4.065.249-8.013-6.18-3.497-14.806-4.033-19.146-1.19-3.394 2.225-3.91 2.119-5.339-1.09-1.339-3.008-5.874-8.25-7.138-8.25-.436 0-1.093.3-1.459.667m-299.593 5.452c-4.107 6.753-4.092 24.01.027 32.084 3.079 6.037 10.209 14.573 15.702 18.8 5.019 3.863 26.219 13.201 34.783 15.321 7.68 1.902 13.572 2.741 13.025 1.856-.238-.386 2.114-.832 5.228-.991 7.633-.391 12.475-1.774 14.657-4.185.998-1.102 2.226-2.004 2.73-2.004 1.038 0 3.774-2.528 3.774-3.488 0-.346-.45-.352-1-.012-.55.34-1 .179-1-.358 0-.536.563-1.202 1.25-1.48 1-.403 1-.52 0-.583-1.735-.11-1.561-2.674.382-5.64 2.539-3.875 3.4-15.214 1.456-19.164-1.023-2.078-2.332-3.235-3.677-3.25-1.244-.015-2.551-1.037-3.229-2.525-1.039-2.28-2.261-2.984-4.506-2.594-.454.079-.54-.318-.191-.881.875-1.416-1.394-1.284-8.146.475-3.219.838-10.072 1.5-15.539 1.5-8.263 0-10.827-.416-16.539-2.684-7.9-3.135-15.306-8.3-23.981-16.723-4.786-4.648-7.027-6.118-9.725-6.381-3.049-.297-3.763.081-5.481 2.907m894.426 5.818c-11.358 4.164-20.5 8.462-20.5 9.637 0 .207 1.154-.062 2.565-.599 3.27-1.243 4.362-1.225 2.435.04-1.261.828-1.28 1.127-.118 1.876 1.098.707.966 1.022-.642 1.533-4.88 1.549-2.744 8.045 6.304 19.168 13.9 17.088 20.174 24.3 22.291 25.623 1.76 1.099 3.586 1.262 7.404.658 2.788-.441 5.517-.524 6.065-.185 1.031.637.525-9.074-1.339-25.688-3.156-28.142-4.063-35.35-4.545-36.129-1.121-1.814-7.348-.543-19.92 4.066m-592.155 2.606c-.326.849-.322 1.813.007 2.143.713.712 3.648-1.548 3.648-2.808 0-1.51-3.032-.957-3.655.665M909 984.015c-1.333.876-1.333 1.094 0 1.97.825.541 2.036.991 2.691 1 1.881.024 2.707-2.119 1.187-3.081-1.738-1.102-2.044-1.093-3.878.111m-522.683 6.346c.523 1.381.33 1.718-.747 1.304-1.65-.633-7.57 7.536-7.57 10.447 0 .974-.413 2.025-.919 2.338-.505.312-1.855 4.557-3 9.433-2.487 10.595-2.699 23.916-.57 35.95 1.635 9.246 1.995 10.167 3.981 10.167.755 0 1.659.9 2.008 2 .368 1.158 1.553 2.03 2.817 2.07 2.1.068 2.107.101.183.878-1.893.765-1.86.874.614 2.029 2.276 1.062 3.117.904 6.5-1.222 6.941-4.361 16.695-8.646 25.832-11.349 7.624-2.255 8.697-2.828 7.265-3.875-.924-.676-1.387-1.522-1.029-1.88.358-.358.126-.651-.515-.651-.642 0-1.167-.81-1.167-1.8s-.485-2.285-1.078-2.878c-.593-.593-1.493-4.377-1.999-8.409-1.156-9.207-1.702-10.913-3.49-10.913-.788 0-1.433-.833-1.433-1.852 0-1.019-1.112-3.381-2.471-5.25a588.615 588.615 0 01-4.923-6.898c-1.348-1.925-3.838-5.075-5.533-7-1.696-1.925-3.361-4.4-3.702-5.5-.701-2.263-3.795-5.5-5.258-5.5-.533 0-1.765-.788-2.736-1.75-1.682-1.667-1.732-1.662-1.06.111M700 990c-1.282.828-1.246.972.25.985.962.008 1.75-.435 1.75-.985 0-1.22-.113-1.22-2 0m63.2 26.2c-1.664 1.664-1.499 2.8.407 2.8.985 0 1.394-.555 1.056-1.435-.303-.79-.013-1.654.643-1.921.659-.268.723-.522.144-.565-.578-.043-1.59.461-2.25 1.121m-449.469 5.88c.354 1.352.807 1.806 1.057 1.057.24-.722-.038-1.787-.62-2.369-.742-.742-.872-.351-.437 1.312m1039.233 8.756c.659 1.284 1.472 2.061 1.807 1.726.336-.335-.203-1.386-1.197-2.336-1.728-1.65-1.755-1.623-.61.61m3.036 3.775c0 .544.498 1.487 1.107 2.096.81.81.568 1.397-.901 2.183-1.742.932-1.941.811-1.491-.907.288-1.103.023-1.983-.598-1.983-.615 0-1.117.477-1.117 1.059s-.429.794-.953.47c-.525-.324-3.193-.831-5.929-1.126-4.313-.466-5.123-.262-6.082 1.53-.609 1.137-1.689 2.067-2.402 2.067-.713 0-1.917 1.16-2.675 2.577-.759 1.418-2.168 3-3.132 3.516-.964.515-1.53 1.519-1.257 2.229.272.71-.644 2.615-2.036 4.234-2.005 2.332-2.532 4.024-2.533 8.135-.001 5.185 1.398 7.902 2.353 4.571.278-.969.452.29.386 2.798-.074 2.832.522 5.475 1.57 6.973.93 1.327 1.69 3.376 1.69 4.555 0 1.178.967 3.372 2.15 4.875 1.585 2.016 1.83 2.931.933 3.486-.913.564-.704 1.664.833 4.401 1.127 2.008 1.72 3.656 1.317 3.662-.403.007 1.199 1.807 3.56 4 3.808 3.537 4.855 3.988 9.25 3.988H1355v-4.977c0-4.205.388-5.231 2.5-6.615 1.375-.901 2.5-2.261 2.5-3.023s.45-1.385 1-1.385 1-1.465 1-3.257c0-1.791.487-4.828 1.082-6.75 1.215-3.925 2.075-10.053 2.016-14.38-.021-1.588.834-4.114 1.902-5.613 1.067-1.499 1.654-3.012 1.304-3.363-.351-.35-.139-.637.47-.637.61 0 1.402.476 1.762 1.059.384.621 1.905.783 3.684.393 2.081-.457 2.818-.323 2.353.43-.411.665-.118.881.746.549.783-.3 1.692.155 2.021 1.012.328.856 1.269 1.557 2.09 1.557.82 0 2.41.985 3.531 2.189 1.121 1.203 2.039 1.656 2.039 1.007 0-.65-3.487-3.735-7.75-6.855-4.263-3.121-10.134-7.961-13.049-10.757-2.914-2.796-5.76-4.96-6.324-4.809-.564.151-.744-.181-.4-.737.344-.557-.298-2.003-1.426-3.214-1.128-1.21-2.051-1.756-2.051-1.213m294.638 4.889c-.316.825-.139 1.5.393 1.5.533 0 .969-.675.969-1.5s-.177-1.5-.393-1.5c-.216 0-.652.675-.969 1.5m-922.138 8.605c-2.2.481-6.69 1.355-9.977 1.943-3.287.588-6.222 1.464-6.52 1.948-.299.483-4.044 1.196-8.323 1.584-6.791.615-8.122 1.068-10.476 3.562-1.484 1.572-3.23 2.858-3.881 2.858-.651 0-1.329 1.013-1.507 2.25-.248 1.732-.897 2.192-2.819 1.997-1.373-.139-2.014.086-1.424.5.59.414 1.383 1.591 1.761 2.614.527 1.425.319 1.72-.888 1.257-2.403-.922-1.43 1.456 10.582 25.882 5.95 12.1 12.473 26.5 14.495 32 5.166 14.051 7.72 19.16 15.405 30.821 9 13.655 13.992 17.795 23.108 19.162 3.813.571 4.801.355 6.392-1.403 1.035-1.144 2.631-2.08 3.545-2.08 2.973 0 12.386-3.157 11.443-3.838-1.619-1.17-1.591-4.162.04-4.162 1.785 0 1.73.601 1.579-17-.064-7.425-.555-14.879-1.092-16.565-.537-1.685-1.376-5.96-1.864-9.5-.489-3.539-1.628-8.91-2.531-11.935-2.816-9.424-4.768-16.4-5.317-19-.291-1.375-.852-2.725-1.247-3-.396-.275-1.449-3.029-2.341-6.119-.893-3.091-2.302-6.183-3.133-6.873-.83-.689-1.51-2.175-1.51-3.302 0-1.127-.736-2.862-1.636-3.856-.899-.994-1.725-2.604-1.835-3.578-.334-2.954-2.666-8.272-3.627-8.272-.496 0-.914-.562-.928-1.25-.027-1.338-8.99-7.827-10.544-7.635-.511.063-2.73.509-4.93.99m659.769 15.971c-.127 1.693.107 1.856 1.276.886.788-.654 1.186-1.588.885-2.075-.952-1.54-1.999-.964-2.161 1.189m-30.662 21.506c-.858 2.235-.79 2.418.893 2.418.833 0 1.5-.889 1.5-2 0-2.384-1.536-2.653-2.393-.418M182.2 1095.2c-1.589 1.589-1.531 3.8.1 3.8 1.672 0 3.7-2.028 3.7-3.7 0-1.631-2.211-1.689-3.8-.1m-13.2 1.639c0 .727 4.271 3.161 5.547 3.161.249 0 .453-.9.453-2 0-1.556-.667-2-3-2-1.65 0-3 .378-3 .839m1190.667 15.828c-.367.366-.667 1.941-.667 3.5 0 2.513-.367 2.842-3.25 2.912-1.787.043-2.669.312-1.958.597.965.388 1.009.859.173 1.866-.615.741-.96 2.385-.767 3.653.341 2.231.409 2.209 2.134-.695 1.646-2.769 1.741-2.808 1.239-.5-.299 1.375-.55 2.807-.557 3.183-.008.375-.947.978-2.086 1.34-1.234.391-1.856 1.222-1.538 2.052.298.775-.363 1.875-1.488 2.477-1.113.596-1.829 1.615-1.59 2.266.238.65-.68 2.674-2.041 4.498-3.12 4.183-2.227 5.382 1.155 1.549 2.703-3.063 15.574-23.6 15.574-24.851 0-.411-.898-.512-1.995-.225-1.689.441-1.903.152-1.392-1.884.606-2.413.296-2.981-.946-1.738m3.333.833c0 .825.45 1.5 1 1.5s1-.675 1-1.5-.45-1.5-1-1.5-1 .675-1 1.5m109.813 9.183c.721.289 1.584.253 1.916-.079.332-.332-.258-.568-1.312-.525-1.165.048-1.402.285-.604.604M1462 1126c-2.01.644-2.108.806-.5.83 1.1.016 2.9-.357 4-.83 2.548-1.095-.081-1.095-3.5 0m-116 11.5c-.685.825-.933 1.5-.551 1.5s1.369-.675 2.194-1.5 1.073-1.5.551-1.5c-.522 0-1.509.675-2.194 1.5m-473.921 25.083c.048 1.165.285 1.402.604.605.289-.722.253-1.585-.079-1.917-.332-.332-.568.258-.525 1.312m-3.868 5.018c-.71.769-.849 1.399-.309 1.399 1.038 0 2.541-1.902 1.948-2.466-.192-.183-.93.297-1.639 1.067m-9.461.061c.688.278 1.813.278 2.5 0 .688-.277.125-.504-1.25-.504s-1.937.227-1.25.504m570.25.731c0 .216.698.661 1.552.989.89.341 1.291.173.941-.393-.587-.951-2.493-1.406-2.493-.596M890.5 1172c.34.55 1.068 1 1.618 1s.722-.45.382-1c-.34-.55-1.068-1-1.618-1s-.722.45-.382 1m88.817 1.503c-14.148 3.075-21.21 8.708-27.321 21.791-7.056 15.104-10.936 36.774-10.973 61.281-.026 16.801 2.495 66.548 3.998 78.925 1.174 9.66 7.647 40.89 13.162 63.5l4.815 19.749.791 3.25-27.644-.649c-24.572-.577-28.312-.455-33.645 1.095-3.3.959-6.45 2.113-7 2.564-.55.452-4.803 1.792-9.452 2.979-4.648 1.187-9.299 2.611-10.335 3.166-1.037.554-2.062.831-2.279.614-.216-.217-1.504-4.641-2.861-9.831-5.97-22.831-10.482-34.302-24.758-62.937-21.177-42.477-44.906-76.909-69.187-100.394-7.377-7.135-18.128-15.606-19.808-15.606-.528 0-2.868-1.313-5.2-2.917-2.332-1.605-7.849-4.737-12.259-6.961-7.541-3.803-8.609-4.061-17.94-4.333-8.855-.258-10.249-.055-12.972 1.887-3.767 2.687-7.871 10.058-9.967 17.899-2.815 10.532-.247 42.748 5.057 63.425 1.34 5.225 3.833 15.35 5.54 22.5 3.214 13.465 9.776 31.999 15.506 43.798 1.816 3.74 4.022 9.277 4.902 12.305 3.496 12.028 17.771 41.733 27.582 57.397 12.456 19.887 30.203 45.09 36.204 51.415l5.773 6.085-2.015 5.5c-2.123 5.792-5.431 21.19-9.556 44.475-1.992 11.25-2.513 17.782-2.668 33.5-.106 10.739-.354 16.6-.552 13.025-.613-11.062-2.076-8.849-1.911 2.891.148 10.542 1.032 14.351 1.94 8.359.229-1.513.493 1.75.588 7.25.204 11.891 2.408 22.37 8.413 40 2.435 7.15 5.648 16.989 7.139 21.865 1.492 4.875 4.644 13.425 7.005 19 2.361 5.574 5.974 14.515 8.029 19.869 3.935 10.251 5.977 13.512 16.251 25.939 7.501 9.073 13.281 13.159 22.638 16.001 12.283 3.731 20.996 1.533 37.143-9.369 12.2-8.237 14.671-13.156 14.918-29.699.132-8.837.277-9.445 2.447-10.248 4.368-1.616 36.994-6.807 50.307-8.004 12.411-1.116 15.076-1.012 38.338 1.495 34.488 3.716 33.219 3.349 37.5 10.852 5.397 9.459 15.307 18.928 28.892 27.603 3.225 2.06 4.509 2.257 12.108 1.859 9.806-.514 15.083-2.477 22.531-8.377 7.068-5.6 11.123-13.571 12.865-25.287.748-5.036 1.865-9.66 2.482-10.277.617-.617 1.123-1.82 1.123-2.672.001-.853 3.369-5.6 7.483-10.55 9.256-11.134 12.508-17.137 16.411-30.293 3.749-12.638 5.262-23.947 4.18-31.234-.448-3.01-1.804-12.149-3.014-20.308-2.831-19.079-7.824-37.195-14.239-51.659-2.804-6.322-5.9-13.825-6.88-16.674-2.592-7.534-11.94-25.381-19.03-36.332-5.975-9.228-23.974-28.453-34.698-37.06l-4.285-3.44 2.621-8c1.441-4.4 4.122-11.841 5.957-16.536 5.179-13.25 7.289-22.854 9.658-43.964 2.027-18.056 2.101-20.907 1.006-38.5-3.336-53.597-9.761-85.547-24.611-122.386-7.063-17.521-20.967-39.086-30.64-47.523-5.68-4.953-19.071-11.303-27.686-13.129-8.064-1.709-9.885-1.705-17.917.041M296 1175c0 .55.702 1 1.559 1s1.281-.45.941-1c-.34-.55-1.041-1-1.559-1s-.941.45-.941 1m602.5 5c-.34.55-.141 1 .441 1s1.059-.45 1.059-1-.198-1-.441-1-.719.45-1.059 1m646.064 8.707c-.542 1.425-.428 1.54.56.56.684-.679.991-1.486.683-1.793-.308-.308-.867.247-1.243 1.233m-1270.814 3.999c1.238.238 3.262.238 4.5 0 1.238-.239.225-.434-2.25-.434s-3.488.195-2.25.434m1459.73 28.544a405.96 405.96 0 00-1.818 5.25c-1.958 5.754-4.058 5.626-7.13-.436-1.411-2.785-2.992-5.064-3.514-5.064-1.548 0-2.826 3.235-4.047 10.244l-1.149 6.601-3.379-.548c-6.121-.993-13.329 2.193-19.193 8.483-7.816 8.384-6.955 12.039 2.423 10.287 5.628-1.052 6.712-.712 8.209 2.573 1.037 2.275 1.546 2.464 5.06 1.87 3.167-.535 4.297-.271 5.96 1.392 1.129 1.129 2.706 1.802 3.505 1.495.799-.306 3.079.214 5.066 1.157 3.485 1.654 3.69 1.643 5.82-.305 3.186-2.915 6.575-3.757 7.319-1.818.771 2.011 4.76 2.03 6.419.032.701-.845 1.994-1.468 2.872-1.385 3.385.323 4.235-.176 5.247-3.078.758-2.176 1.686-3 3.376-3 2.98 0 5.769-2.766 5.155-5.112-.606-2.319.685-3.271 6.609-4.874 5.582-1.511 7.528-3.987 4.928-6.272-6.344-5.574-18.017-8.107-24.629-5.344-3.606 1.507-5.021 1.443-5.134-.231-.213-3.148-1.873-9.087-3.052-10.917-1.58-2.454-4.197-2.985-4.923-1M104 1223c0 .55.45 1 1 1s1-.45 1-1-.45-1-1-1-1 .45-1 1m1629.552 13.591c-2.264 2.264-.542 4.009 2.401 2.434 2.175-1.164 2.355-3.089.351-3.757-.59-.197-1.828.399-2.752 1.323m-12.552 1.441c0 1.172 4.107 2.964 5.25 2.292 1.999-1.177.546-3.324-2.25-3.324-1.65 0-3 .465-3 1.032m-1490.2 6.218c-.871.688-2.762 3.162-4.204 5.5-1.442 2.338-2.756 4.25-2.921 4.25-.165 0-2.162-.9-4.439-2s-5.502-2-7.167-2c-2.927 0-11.049 2.695-12.069 4.004-.275.353-1.287.932-2.25 1.288-.963.355-1.75 1.542-1.75 2.638 0 1.507 1.036 2.258 4.25 3.081 2.338.598 4.782 1.265 5.432 1.481.651.216 1.326 1.882 1.5 3.701.268 2.786.759 3.358 3.12 3.628 1.877.216 3.107 1.123 3.725 2.75.508 1.336 1.599 2.429 2.425 2.429.826 0 2.244 1.133 3.152 2.518 1.492 2.277 2.095 2.458 6.316 1.898 4.329-.574 4.752-.431 5.852 1.983 1.188 2.606 3.589 3.443 4.705 1.639.373-.605 1.5-.55 3.029.147 1.889.86 2.815.796 4.131-.288.933-.768 3.309-1.397 5.28-1.397 2.783 0 3.806-.514 4.583-2.301.907-2.087 1.553-2.273 6.968-2 7.754.391 8.156-1.176 2.046-7.972-4.43-4.928-11.974-8.794-15.643-8.017-1.434.303-1.447-.094-.28-8.443.893-6.385-1.321-7.391-6.091-2.767-4.175 4.046-7.065 3.574-6.149-1.004.609-3.046-.014-5.996-1.267-5.996-.386 0-1.414.563-2.284 1.25m-2.568 13.75c.687 1.1 1.816 2 2.509 2 1.809 0 1.555-2.672-.323-3.393-2.802-1.075-3.464-.653-2.186 1.393m8.214 2.087c-.369.598-.246 1.513.274 2.033 1.255 1.255 4.28.035 4.28-1.727 0-1.641-3.58-1.882-4.554-.306m1013.086 4.861c-.262.424-.026 4.547.525 9.162.552 4.614 1.446 13.62 1.988 20.012.959 11.302.902 11.949-2.071 23.5-8.323 32.341-22.273 63.843-36.883 83.293-11.689 15.561-32.466 33.197-64.659 54.883-14.535 9.791-20.217 14.667-24.423 20.957-2.842 4.252-3.131 5.349-2.773 10.55.32 4.644 1.586 8.142 6.332 17.487 5.548 10.926 6.481 12.153 14.399 18.945 4.657 3.995 8.844 7.263 9.304 7.263.459 0 3.849 1.964 7.532 4.365 20.203 13.169 41.515 19.276 56.4 16.162 8.125-1.7 15.338-5.308 19.372-9.688 2.709-2.941 8.695-10.603 24.281-31.076 2.395-3.147 6.445-7.022 9-8.611 2.554-1.59 8.21-5.873 12.568-9.518 8.166-6.829 21.717-14.37 34.076-18.963 13.576-5.044 45.067-14.491 50.475-15.141 3.011-.362 6.085-1.165 6.83-1.783.819-.68 8.053-1.346 18.313-1.686 10.642-.352 17.224-.971 17.67-1.661.392-.605 1.725-1.634 2.962-2.285 2.77-1.459 2.91-4.781.319-7.551-1.062-1.135-3.03-5.098-4.373-8.806-2.833-7.82-6.575-14.246-14.75-25.322-3.222-4.365-5.396-8.096-4.833-8.292.564-.196 3.356.856 6.206 2.337 5.151 2.678 5.264 2.689 19.681 2.002 17.285-.823 22.627-1.708 29.602-4.901 13.652-6.25 21.389-19.137 21.364-35.582-.01-7.161-4.813-22.65-9.504-30.656-5.31-9.06-27.392-32.344-30.675-32.344-.412 0-1.004-1.013-1.316-2.25-1.774-7.046-29.954-15.722-81.899-25.216-12.284-2.245-40.321-5.48-56.572-6.527-7.425-.479-16.875-1.373-21-1.986-12.235-1.821-12.97-1.879-13.468-1.073m-358.291 24.035c-3.332 1.415-10.752 9.404-12.268 13.209-.725 1.82-1.436 3.466-1.579 3.658-.144.193-1.988-1.036-4.097-2.732-3.51-2.82-10.872-5.118-16.399-5.118-3.656 0-8.661 5.779-10.943 12.634-1.926 5.789-2.127 8.118-1.739 20.205.545 16.987 2.468 22.04 12.009 31.552 11.382 11.349 20.138 14.678 39.08 14.86 13.086.127 17.448-1.207 31.422-9.602 6.199-3.725 8.928-6.003 9.868-8.239 1.7-4.047 3.405-20.985 3.405-33.834 0-19.329-7.218-34.213-17.529-36.148-4.586-.86-9.7.169-12.062 2.427-1.851 1.769-2.021 1.75-5.587-.601-4.113-2.711-10.161-3.722-13.581-2.271M1226 1321.378c0 .207.787.995 1.75 1.75 1.586 1.243 1.621 1.208.378-.378-1.307-1.666-2.128-2.195-2.128-1.372m-1198.921 8.205c.048 1.165.285 1.402.604.605.289-.722.253-1.585-.079-1.917-.332-.332-.568.258-.525 1.312m1.021 5.608c-.055 2.03.35 3.969.9 4.309 1.157.715 1.157-1.888 0-5.5-.719-2.246-.811-2.124-.9 1.191m327.9 34.868c0 .582.45.781 1 .441s1-.816 1-1.059-.45-.441-1-.441-1 .477-1 1.059m519.459 21.129c1.885 4.571 4.408 11.61 5.606 15.64 1.197 4.03 2.821 7.575 3.607 7.876 5.072 1.947 14.389-17.467 12.824-26.725l-.62-3.671-10.188-.004c-5.603-.002-11.193-.324-12.422-.716-2.167-.691-2.131-.462 1.193 7.6m-606.792 45.479c-.367.366-.667 1.131-.667 1.7 0 .626.466.567 1.183-.15.651-.651.951-1.416.667-1.7-.284-.284-.817-.217-1.183.15m9.774 5.783c-1.875 1.401-1.864 1.431.309.884 1.238-.312 2.25-.965 2.25-1.451 0-1.19-.295-1.124-2.559.567m10.309 1.212c.688.278 1.813.278 2.5 0 .688-.277.125-.504-1.25-.504s-1.937.227-1.25.504m-26.75 2.731c0 .216.698.661 1.552.989.89.341 1.291.173.941-.393-.587-.951-2.493-1.406-2.493-.596m37 .44c0 .642-1.012 1.219-2.25 1.283-1.852.095-1.922.201-.394.594 1.995.513 4.455-1.232 3.327-2.36-.375-.376-.683-.158-.683.483m-231.494 3.173c.998 1.104 2.032 1.789 2.297 1.524.672-.672-1.822-3.53-3.08-3.53-.568 0-.216.903.783 2.006m223.573 3.577c.048 1.165.285 1.402.604.605.289-.722.253-1.585-.079-1.917-.332-.332-.568.258-.525 1.312M108 1455c-1.207.78-1.049.972.809.985 1.288.008 2.036-.427 1.691-.985-.743-1.202-.639-1.202-2.5 0m142 .5c0 .825.436 1.5.969 1.5.532 0 .709-.675.393-1.5-.317-.825-.753-1.5-.969-1.5-.216 0-.393.675-.393 1.5m-134.627 50.706c-.677 1.096 1.338 2.754 3.377 2.779.688.008 1.25-.608 1.25-1.368 0-1.687-3.75-2.83-4.627-1.411m953.83 2.38c-2.854 1.422-6.093 3.855-7.197 5.406-3.075 4.318-8.975 15.008-8.284 15.008 1.101 0 17.727-9.179 19.673-10.862 2.365-2.044 5.92-9.819 5.098-11.15-1.002-1.621-3.795-1.14-9.29 1.598m447.78 16.932c-1.301 1.384-4.866 3.741-7.924 5.236-4.851 2.372-6.769 2.72-15.059 2.732-7.66.011-10.501-.42-14.666-2.228-6.451-2.799-9.839-2.259-17.483 2.786-3.108 2.051-8.058 4.545-11 5.543-3.684 1.25-4.728 1.939-3.351 2.211 1.1.218 2.45.868 3 1.446.682.716.589.817-.294.317-.711-.403-1.952-.187-2.756.48-1.27 1.054-1.222 1.427.363 2.836 2.489 2.212 3.496 5.123 1.772 5.123-.743 0-1.64.787-1.993 1.75-.353.963-1.354 3.037-2.224 4.61-1.485 2.684-1.453 3.034.525 5.709 1.159 1.568 2.107 3.547 2.107 4.399 0 2.016 4.924 7.532 6.724 7.532.767 0 1.116.45.776 1-.797 1.29 4.556 1.309 7.926.028 2.765-1.051 5.907-.376 5.009 1.077-.996 1.612.577.949 6.038-2.545 23.3-14.904 39.501-23.729 50.448-27.477 4.99-1.709 23.477-6.083 25.708-6.083.224 0-1.249-3.037-3.275-6.75l-3.684-6.75-6.085-.019c-4.747-.016-7.157-.62-10.961-2.75-5.989-3.354-6.676-3.369-9.641-.213M1451 1541.059c0 .582.45.781 1 .441s1-.816 1-1.059-.45-.441-1-.441-1 .477-1 1.059m96 0c0 .582.45.781 1 .441s1-.816 1-1.059-.45-.441-1-.441-1 .477-1 1.059m-721.181 1.477c-3.891 2.113-5.041 7.464-1.604 7.464.603 0 2.581 1.132 4.395 2.516 7.268 5.544 20.559 9.093 21.813 5.825 1.009-2.63.646-3.937-2.319-8.353-5.39-8.025-15.193-11.303-22.285-7.452M1035.5 1550c.34.55.816 1 1.059 1s.441-.45.441-1-.477-1-1.059-1-.781.45-.441 1m3.5 2c0 .55.477 1 1.059 1s.781-.45.441-1-.816-1-1.059-1-.441.45-.441 1m-4.554 2.087c-.369.598-.28 1.479.199 1.958 1.183 1.183 3.786-.538 2.924-1.933-.873-1.414-2.258-1.425-3.123-.025m9.554 2.791c0 .482.64 1.408 1.421 2.057 1.167.968 1.325.81.884-.878-.526-2.01-2.305-2.92-2.305-1.179m-6.611 4.889a23.599 23.599 0 01-1.37 3.322c-.46.875-.434 2.225.057 3 .666 1.052.897.788.909-1.039.012-1.906.282-2.183 1.215-1.25 1.929 1.929 2.8 1.403 2.8-1.693 0-3.308-2.76-5.097-3.611-2.34m-7.374 5.483c.012 2.466.249 2.888.985 1.75 1.27-1.965 1.27-5 0-5-.55 0-.993 1.463-.985 3.25m-160.462 3.665a1.116 1.116 0 00.362 1.532c.521.322 1.21.159 1.532-.362a1.116 1.116 0 00-.362-1.532 1.116 1.116 0 00-1.532.362m7.639 3.16c.197.591.785 1.075 1.308 1.075s1.111-.484 1.308-1.075c.197-.591-.391-1.075-1.308-1.075s-1.505.484-1.308 1.075M199 1576c.825.533 1.95.969 2.5.969s.325-.436-.5-.969c-.825-.533-1.95-.969-2.5-.969s-.325.436.5.969m1630 1c0 .55.477 1 1.059 1s.781-.45.441-1-.816-1-1.059-1-.441.45-.441 1m-973.98 1.476c-.789.95-.865 1.524-.201 1.524 1.208 0 2.617-1.897 1.924-2.591-.252-.251-1.027.229-1.723 1.067M1465 1578c0 .55.45 1 1 1s1-.45 1-1-.45-1-1-1-1 .45-1 1m355.5 1c-.34.55-.141 1 .441 1s1.059-.45 1.059-1-.198-1-.441-1-.719.45-1.059 1m-960.771 2.604c-.401.401-.729 1.419-.729 2.263 0 1.125.296 1.237 1.112.42.612-.611.941-1.629.73-2.262-.211-.633-.712-.822-1.113-.421m963.271.298c0 1.038 1.902 2.541 2.466 1.948.183-.192-.297-.93-1.067-1.639-.769-.71-1.399-.849-1.399-.309m-959.921 1.681c.048 1.165.285 1.402.604.605.289-.722.253-1.585-.079-1.917-.332-.332-.568.258-.525 1.312M1819 1583c0 .55.477 1 1.059 1s.781-.45.441-1-.816-1-1.059-1-.441.45-.441 1m7.872 2.75c-1.243 1.586-1.208 1.621.378.378.963-.755 1.75-1.543 1.75-1.75 0-.823-.821-.294-2.128 1.372m-954.84 2c.03 2.606.107 2.65 1.468.853 1.446-1.911 1.184-3.603-.559-3.603-.518 0-.927 1.237-.909 2.75m949.781 1.933c.721.289 1.584.253 1.916-.079.332-.332-.258-.568-1.312-.525-1.165.048-1.402.285-.604.604m26.187.376c0 .582.45.781 1 .441s1-.816 1-1.059-.45-.441-1-.441-1 .477-1 1.059m-44.972 4.407c-.669.807-1.062 1.917-.873 2.468.19.55.865-.11 1.501-1.467 1.318-2.813 1.127-3.116-.628-1.001m2.639 1.201c-.367.366-.667 1.131-.667 1.7 0 .626.466.567 1.183-.15.651-.651.951-1.416.667-1.7-.284-.284-.817-.217-1.183.15M1833 1601c-.901.582-1.025.975-.309.985.655.008 1.469-.435 1.809-.985.767-1.242.421-1.242-1.5 0m-10 1.167c0 .458.675.833 1.5.833s1.5-.375 1.5-.833c0-.459-.675-.834-1.5-.834s-1.5.375-1.5.834" fill="undefined" fill-rule="evenodd"/></svg>