<svg xmlns="http://www.w3.org/2000/svg" width="256" height="256"><path fill-opacity=".016" d="M0 128.004v128.004l128.25-.254 128.25-.254.254-127.75L257.008 0H0v128.004m.485.496c0 70.4.119 99.053.265 63.672.146-35.38.146-92.98 0-128C.604 29.153.485 58.1.485 128.5" fill="#1976D2" fill-rule="evenodd"/><path fill-opacity=".067" d="M107.097 1.545C89.951 4.555 71.038 12.235 56 22.293 46.364 28.739 28.739 46.364 22.293 56 6.424 79.724-.716 104.766.336 133c1.647 44.174 24.974 83.348 62.899 105.628C83.802 250.711 103.513 256 127.979 256c22.546 0 39.593-4.053 58.91-14.008 55.959-28.836 83.031-94.885 63.12-153.992-14.242-42.277-48.451-73.655-92.212-84.578-13.161-3.286-37.538-4.188-50.7-1.877m19.716 37.138c.721.289 1.584.253 1.916-.079.332-.332-.258-.568-1.312-.525-1.165.048-1.402.285-.604.604m9.187 3.71c0 .216.698.661 1.552.989.89.341 1.291.173.941-.393-.587-.951-2.493-1.406-2.493-.596m.813 9.29c.721.289 1.584.253 1.916-.079.332-.332-.258-.568-1.312-.525-1.165.048-1.402.285-.604.604m-38 4c.721.289 1.584.253 1.916-.079.332-.332-.258-.568-1.312-.525-1.165.048-1.402.285-.604.604M71.632 61.75C67 70.724 56 97.281 56 99.49c0 6.354 2.342 11.872 7.162 16.872L68 121.381l.006 31.06c.003 17.371.441 32.627.993 34.616.544 1.956 2.37 4.881 4.06 6.5l3.071 2.943 51.185.261c49.949.255 51.265.212 54.495-1.772 5.935-3.645 6.189-5.348 6.202-41.707l.013-32.782 3.361-2.177c4.548-2.944 8.614-11.243 8.614-17.58 0-3.927-1.582-8.415-8.214-23.303L183.572 59H73.051l-1.419 2.75m2.155 15.023c-2.043 4.8-4.003 9.514-4.357 10.477-.609 1.654 2.613 1.75 58.893 1.75h59.538l-4.616-10.5-4.616-10.5-50.565.023-50.564.023-3.713 8.727M65 101.596c0 7.241 5.429 12.554 13.43 13.142 6.533.481 10.644-1.991 13.871-8.341l2.378-4.679 2.931 4.366c3.894 5.798 8.664 8.916 13.637 8.916 5.803 0 10.671-2.727 13.658-7.653 1.427-2.353 2.905-4.181 3.285-4.063.379.119 1.74 1.78 3.024 3.692 7.269 10.828 20.324 10.725 27.124-.213l3.02-4.857 3.208 5.201c3.811 6.179 6.395 7.811 12.434 7.854 7.876.055 13.662-5.024 14.722-12.923l.541-4.038H65v3.596M.392 128c0 7.425.157 10.463.35 6.75.192-3.713.192-9.787 0-13.5-.193-3.713-.35-.675-.35 6.75m91.302-8.214c-2.527 1.699-5.634 2.71-9.25 3.01l-5.444.452v31.841c0 30.456.084 31.886 1.934 32.876 1.064.569 7.814 1.035 15 1.035H107v-51h42v51h13.845c12.143 0 14.048-.225 15.5-1.829 1.465-1.619 1.655-5.398 1.655-33V123h-4.55c-4.445 0-9.307-1.804-12.583-4.67-1.434-1.254-2.088-1.12-5.351 1.094-7.045 4.781-18.467 4.86-25.546.175-3.763-2.49-4.308-2.603-5.846-1.211-6.594 5.968-22.385 6.069-29.087.187-1.309-1.148-2.103-.968-5.343 1.211M116 166.5V187h25v-41h-25v20.5m-45.921 42.083c.048 1.165.285 1.402.604.605.289-.722.253-1.585-.079-1.917-.332-.332-.568.258-.525 1.312M108.232 212c0 1.925.206 2.713.457 1.75.252-.963.252-2.537 0-3.5-.251-.963-.457-.175-.457 1.75m2.926-1c0 1.375.227 1.938.504 1.25.278-.687.278-1.812 0-2.5-.277-.687-.504-.125-.504 1.25m6.074 1c0 1.925.206 2.713.457 1.75.252-.963.252-2.537 0-3.5-.251-.963-.457-.175-.457 1.75m77.581.683c.721.289 1.584.253 1.916-.079.332-.332-.258-.568-1.312-.525-1.165.048-1.402.285-.604.604m-45 4c.721.289 1.584.253 1.916-.079.332-.332-.258-.568-1.312-.525-1.165.048-1.402.285-.604.604" fill="#1976D2" fill-rule="evenodd"/><path fill-opacity=".231" d="M117.5.577C103.34 2.55 98.262 3.592 90 6.221c-19.636 6.248-37.441 17.096-52.062 31.717C23.307 52.568 12.447 70.4 6.231 90 1.823 103.9.554 112.746.639 129c.186 35.698 13.302 66.27 39.101 91.141 19.189 18.498 42.408 30.089 69.023 34.458 11.751 1.929 33.898 1.435 45.075-1.006 47.949-10.471 85.845-46.307 97.986-92.662 2.967-11.329 5.461-30.344 4.892-37.297-2.723-33.218-15.106-61.623-36.575-83.894C196.321 15.031 166.609 1.781 132.32.575c-6.501-.229-13.17-.228-14.82.002m7.25 37.49c-.963.568-1.75 1.685-1.75 2.483 0 .797-.675 1.45-1.5 1.45s-1.5-.45-1.5-1 .45-1 1-1 1-.45 1-1c0-1.955-3.695-.963-4.656 1.25-1.408 3.24-.497 11.75 1.257 11.75.966 0 1.399-1.239 1.399-4 0-2.889.417-4 1.5-4s1.5 1.111 1.5 4c0 2.577.454 4 1.276 4 .886 0 1.16-1.223.895-4-.301-3.164-.045-4 1.224-4 1.206 0 1.605.995 1.605 4 0 2.889.417 4 1.5 4 1.133 0 1.5-1.222 1.5-5 0-4.71-.15-5-2.583-5-1.623 0-2.429-.465-2.167-1.25.229-.687.942-1.25 1.583-1.25 1.607 0 1.58-1.945-.03-2.233-.717-.128-2.09.232-3.053.8m-45.711 1.861c-1.261 2.355-.436 4.789 2.079 6.135C83.872 47.537 83.485 50 80.5 50c-1.375 0-2.5.45-2.5 1 0 1.885 5.878 1.096 6.965-.934 1.426-2.665 1.375-2.846-1.556-5.562-2.603-2.413-2.533-4.504.15-4.504.793 0 1.441-.45 1.441-1 0-1.821-4.898-1.059-5.961.928M135 39c0 .55.45 1 1 1s1-.45 1-1-.45-1-1-1-1 .45-1 1m-47.813 6.131c-.407 5.343.566 6.869 4.38 6.869H95v-5c0-3.778-.367-5-1.5-5-1.083 0-1.5 1.111-1.5 4 0 2.2-.45 4-1 4s-1-1.8-1-4c0-4.845-2.452-5.603-2.813-.869M98.2 43.2c-2.519 2.519-1.098 8.8 1.99 8.8 1.15 0 1.792.523 1.536 1.25-.243.688-1.202 1.184-2.133 1.103-.93-.081-1.507.369-1.282 1 .52 1.457 4.849.995 5.88-.628.428-.674.785-3.812.794-6.975.015-5.635-.041-5.75-2.785-5.75-1.54 0-3.34.54-4 1.2m8.995 3.55c.303 4.717.332 4.752 4.107 5.063l3.803.314-.231-5.064c-.156-3.413-.662-5.063-1.553-5.063-.875 0-1.321 1.352-1.321 4 0 2.2-.45 4-1 4s-1-1.8-1-4c0-2.952-.408-4-1.555-4-1.231 0-1.491.989-1.25 4.75m26.257-2.415c-1.253 4.994-.239 7.138 3.547 7.497 2.916.277 3.764-1.069.918-1.457-.505-.069-1.367-.181-1.917-.25-2.196-.274-.832-2.125 1.566-2.125 2.21 0 2.523-.382 2.25-2.75-.247-2.15-.908-2.818-3.031-3.063-2.177-.251-2.838.174-3.333 2.148m14.602-.9c-.655.789-1.047 2.926-.872 4.75.276 2.878.713 3.348 3.318 3.566l3 .25-2.25-1.622C150.012 49.486 149 47.966 149 47c0-.966 1.012-2.462 2.25-3.326 2.243-1.564 2.244-1.569.122-1.622-1.17-.028-2.663.594-3.318 1.383m6.37-.097c-.311.809-.421 2.977-.244 4.817.285 2.979.648 3.345 3.32 3.345 2.889 0 3-.167 3-4.5 0-4.168-.203-4.523-2.756-4.817-1.732-.199-2.965.229-3.32 1.155M163 47.005c0 3.773.367 4.995 1.5 4.995 1.083 0 1.5-1.111 1.5-4 0-2.2.45-4 1-4s1 1.8 1 4c0 2.889.417 4 1.5 4s1.5-1.111 1.5-4c0-2.2.45-4 1-4s1 1.8 1 4c0 2.889.417 4 1.5 4 1.069 0 1.496-1.077 1.485-3.75-.009-2.062-.346-4.255-.75-4.872s-3.323-1.177-6.485-1.245l-5.75-.124v4.996M100 47c0 1.65.45 3 1 3s1-1.35 1-3-.45-3-1-3-1 1.35-1 3m35-2c0 .55.675 1 1.5 1s1.5-.45 1.5-1-.675-1-1.5-1-1.5.45-1.5 1m21 2c0 2.089.425 3.025 1.25 2.75.688-.229 1.25-1.467 1.25-2.75s-.562-2.521-1.25-2.75c-.825-.275-1.25.661-1.25 2.75m-14 3.5c0 .825.675 1.5 1.5 1.5s1.5-.675 1.5-1.5-.675-1.5-1.5-1.5-1.5.675-1.5 1.5M64.158 77.385C57.553 92.283 56 96.722 56 100.697c0 6.197 3.922 14.379 8.603 17.95l3.397 2.59v32.414c0 35.962.262 37.709 6.19 41.323 3.206 1.955 4.92 2.019 54.678 2.022l51.367.004 3.883-3.882 3.882-3.883v-67.543l4.034-3.454c5.763-4.932 7.978-9.818 7.91-17.448-.05-5.633-.873-8.118-7.877-23.79l-7.822-17.5-55.965-.258-55.964-.259-8.158 18.402M77.08 70.25c-.479 1.237-2.493 5.794-4.475 10.125C70.622 84.706 69 88.419 69 88.625c0 .206 26.58.375 59.067.375h59.068l-.683-2.152c-.376-1.183-2.41-5.908-4.522-10.5L178.092 68H77.95l-.87 2.25m-12.076 31c.007 6.583 5.635 12.49 12.819 13.453 5.71.766 10.2-1.753 13.734-7.705 1.619-2.727 3.171-4.967 3.45-4.978.279-.011 1.713 1.976 3.186 4.415 3.621 5.994 6.887 7.953 13.36 8.015 6.215.059 9.43-1.892 13.833-8.396l2.886-4.262 2.746 4.412c3.747 6.019 7.319 8.175 13.656 8.242 6.22.065 9.398-1.951 13.98-8.868 2.719-4.106 3.24-4.487 3.785-2.771 1.489 4.692 6.532 10.104 10.532 11.302 8.441 2.529 18.029-3.929 18.029-12.144V98H65l.004 3.25m60.071 18.339c-7.475 5.122-20.246 5.211-26.633.187-2.343-1.843-2.948-1.939-4.811-.765-4.75 2.995-7.352 4.005-11.881 4.611l-4.75.636v30.671c0 22.522.319 30.99 1.2 31.871.817.817 5.6 1.2 15 1.2H107v-51h41.966l.267 25.608.267 25.608 13.927-.158c7.659-.087 14.297-.387 14.75-.667.452-.28.823-14.606.823-31.836v-31.328l-4.75-.693c-2.613-.381-6.68-1.76-9.039-3.065l-4.289-2.372-4.508 2.398c-8.49 4.514-17.134 4.22-24.585-.836l-3.444-2.338-3.31 2.268M.349 128c0 4.675.173 6.588.383 4.25.211-2.338.211-6.163 0-8.5-.21-2.338-.383-.425-.383 4.25M116 166.5V187h24v-41h-24v20.5m-57 37.668c0 .643.5 4.038 1.111 7.547 1.251 7.185 2.763 7.759 4.485 1.705l1.115-3.92.732 4.25c1.038 6.02 3.055 5.373 4.419-1.417 1.37-6.822 1.436-9.333.246-9.333-.49 0-1.314 2.137-1.831 4.75l-.939 4.75-.789-4.793c-.959-5.828-2.738-5.704-3.756.26-.944 5.527-1.793 6.371-1.793 1.781 0-1.971-.273-4.296-.607-5.166-.705-1.837-2.393-2.129-2.393-.414m30.206 6.002c.19 4.625.738 7.317 1.544 7.583.926.307 1.25-1.549 1.25-7.17 0-6.169-.288-7.583-1.544-7.583-1.275 0-1.493 1.246-1.25 7.17M99 204.763c0 .969-1.013 2.207-2.25 2.75-1.558.683-2.348 2.007-2.568 4.302-.4 4.166 1.17 6.117 4.628 5.752 2.611-.275 2.699-.494 2.984-7.425.242-5.899.025-7.142-1.25-7.142-.849 0-1.544.793-1.544 1.763m8.991.487c-.004 1.238-.292 4.613-.639 7.5-.436 3.63-.279 5.25.509 5.25.662 0 1.139-1.674 1.139-4 0-2.2.45-4 1-4s1.007 1.012 1.015 2.25c.009 1.238.459 2.925 1 3.75.876 1.333 1.094 1.333 1.97 0 .541-.825.991-2.539 1-3.809.008-1.282.46-2.034 1.015-1.691.55.34 1 2.166 1 4.059 0 1.893.45 3.441 1 3.441 1.149 0 1.278-3.69.364-10.36-.83-6.055-3.017-6.139-3.915-.15-.796 5.312-1.935 5.124-2.829-.468-.702-4.384-3.613-5.807-3.629-1.772M137 210.5c0 4.333.422 7.5 1 7.5.55 0 1.01-1.012 1.022-2.25l.022-2.25 1.91 2.485c2.443 3.18 3.376 2.261 1.926-1.899-.835-2.397-.837-3.529-.004-4.362 1.528-1.528 1.414-2.724-.259-2.724-.761 0-1.736 1.012-2.167 2.25-.651 1.869-.85 1.53-1.174-2-.651-7.08-2.276-4.759-2.276 3.25m34 .083c0 5.059.365 7.462 1.097 7.218 1.622-.541 1.769-14.802.153-14.801-.89 0-1.25 2.184-1.25 7.583m-16.24-4.333c-.249.688-.185 3.495.143 6.239.42 3.505 1.083 5.081 2.23 5.3 1.375.263 1.552-.406 1.12-4.238-.342-3.037-.134-4.551.625-4.551.815 0 .784-.569-.11-2-1.411-2.26-3.329-2.619-4.008-.75m-80.908 3.176c-1.488 3.266-.339 7.285 2.324 8.13 2.632.835 4.824-1.686 4.824-5.547 0-5.075-5.163-6.941-7.148-2.583M83 212.708c0 3.925.351 5.34 1.25 5.038.688-.231 1.113-1.562.945-2.957-.168-1.395.395-3.236 1.25-4.091 2.246-2.246 1.916-3.448-.945-3.448-2.361 0-2.5.303-2.5 5.458M121.5 208c-.34.55.309 1 1.441 1 2.673 0 2.663 1.609-.015 2.309-1.587.415-1.997 1.198-1.75 3.341.276 2.385.805 2.823 3.574 2.958 3.174.154 3.25.06 3.25-4.025 0-2.301-.54-4.723-1.2-5.383-1.458-1.458-4.453-1.571-5.3-.2m8.701 4.274c.373 6.317 2.799 7.886 2.799 1.809 0-2.245.45-4.083 1-4.083 2.266 0 .796-2.512-1.549-2.647-2.451-.142-2.537.046-2.25 4.921m15.834-3.34c-2.269 4.24-.121 9.066 4.036 9.066 2.534 0 2.484-1.622-.071-2.29-2.844-.743-2.481-2.71.5-2.71 1.375 0 2.5-.48 2.5-1.066 0-2.27-2.159-4.934-4-4.934-1.061 0-2.395.87-2.965 1.934M161 214.617c0 5.896.302 7.383 1.5 7.383.943 0 1.5-.951 1.5-2.559 0-1.523.423-2.298 1.044-1.914 1.811 1.119 3.956-1.641 3.956-5.09 0-3.692-1.18-4.827-5.25-5.052l-2.75-.151v7.383M176.5 208c-.34.55.309 1 1.441 1 1.132 0 2.059.45 2.059 1s-.62 1-1.378 1c-.757 0-1.969.713-2.692 1.584-1.911 2.303.057 4.829 3.913 5.023 3.065.154 3.157.037 3.157-4.024 0-2.301-.54-4.723-1.2-5.383-1.458-1.458-4.453-1.571-5.3-.2m9.7.2c-1.681 1.681-1.497 7.308.287 8.789.818.679 2.214.956 3.102.615 1.39-.533 1.305-.869-.615-2.424-1.631-1.321-2.042-2.39-1.534-3.992.382-1.203 1.339-2.188 2.127-2.188.788 0 1.433-.45 1.433-1 0-1.393-3.347-1.253-4.8.2m6.854.235c-1.613 1.943-.934 7.626 1.06 8.873.9.563 2.449.658 3.5.213 1.723-.727 1.676-.852-.54-1.436-3.405-.898-3.871-3.085-.657-3.085 1.821 0 2.583-.531 2.583-1.8 0-3.67-3.748-5.413-5.946-2.765M76 212.5c0 1.925.45 3.5 1 3.5s1-1.575 1-3.5-.45-3.5-1-3.5-1 1.575-1 3.5m20.549-1.655c-.723 2.279.319 5.355 1.556 4.59 1.178-.728 1.154-5.157-.033-5.891-.51-.315-1.196.27-1.523 1.301M148 210.5c0 .825.45 1.5 1 1.5s1-.675 1-1.5-.45-1.5-1-1.5-1 .675-1 1.5m16 2c0 1.925.45 3.5 1 3.5s1-1.575 1-3.5-.45-3.5-1-3.5-1 1.575-1 3.5m30.553-2.585a1.116 1.116 0 00.362 1.532c.521.322 1.21.159 1.532-.362a1.116 1.116 0 00-.362-1.532 1.116 1.116 0 00-1.532.362M123 214.583c0 .871.534 1.406 1.188 1.188 1.854-.618 2.161-2.771.395-2.771-.87 0-1.583.713-1.583 1.583m55-.083c0 .825.45 1.5 1 1.5s1-.675 1-1.5-.45-1.5-1-1.5-1 .675-1 1.5" fill="#1976D2" fill-rule="evenodd"/><path fill-opacity=".322" d="M118.694 1.128C59.512 5.923 11.815 49.696 2.412 107.844c-7.715 47.711 12.68 96.41 52.088 124.375 14.123 10.022 34.685 18.596 52.5 21.891 9.863 1.825 33.869 1.584 44.182-.443 46.557-9.15 83.806-41.807 98.288-86.172 4.34-13.296 7.731-37.13 6.484-45.581A1432.92 1432.92 0 01254.011 108c-2.213-16.425-11.28-38.684-21.793-53.5C206.52 18.282 162.486-2.419 118.694 1.128M79.621 38.521c-2.294 2.295-2.013 4.762.848 7.45 2.728 2.562 2.43 4.449-.553 3.502-1.31-.415-1.916-.131-1.916.901 0 3.898 6.599 3.07 7.61-.954.486-1.938.006-3.211-1.999-5.304-2.682-2.8-2.639-4.448.088-3.401 1.07.41 1.399.033 1.141-1.308-.476-2.469-3.176-2.928-5.219-.886m37.911.729c-.87 1.237-2.583 2.25-3.807 2.25-1.887 0-2.311.684-2.79 4.5l-.564 4.5-.436-4.5c-.303-3.14-.888-4.5-1.935-4.5-1.853 0-2.499 5.058-1.112 8.706.807 2.122 1.635 2.594 4.549 2.594 3.544 0 3.563-.023 3.563-4.4 0-2.42.45-4.4 1-4.4s1 2.025 1 4.5c0 3.333.389 4.5 1.5 4.5s1.5-1.167 1.5-4.5c0-5.707 1.782-5.917 2.193-.259.224 3.094.78 4.332 2.057 4.574 1.46.277 1.75-.426 1.75-4.242 0-2.515.45-4.573 1-4.573s1 2.025 1 4.5c0 3.398.38 4.5 1.55 4.5 1.255 0 1.493-1.094 1.25-5.75-.273-5.235-.501-5.743-2.55-5.671-1.237.044-2.25-.293-2.25-.75 0-.456.9-.829 2-.829 1.111 0 2-.667 2-1.5 0-2.599-4.642-1.756-6.885 1.25-1.128 1.513-2.066 2.214-2.083 1.559-.018-.655.418-1.469.968-1.809 1.672-1.033 1.119-2.5-.943-2.5-1.069 0-2.655 1.013-3.525 2.25M134 37.941c0 .518.458 1.224 1.018 1.57.623.385.235 1.623-1 3.194-2.509 3.189-2.581 6.476-.189 8.64 2.298 2.08 6.171 2.177 6.171.155 0-.833-.889-1.5-2-1.5-1.1 0-2-.45-2-1s1.125-1 2.5-1c3.064 0 3.078-.314.272-6.25-1.98-4.191-4.772-6.42-4.772-3.809m-46.312 3.705c-1.209 1.208-.737 9.069.611 10.187.714.593 2.627.976 4.25.851 2.881-.221 2.951-.356 2.951-5.705 0-4.204-.349-5.479-1.5-5.479-1.027 0-1.678 1.418-2.065 4.5l-.564 4.5-.436-4.422c-.411-4.181-1.717-5.963-3.247-4.432m10.345.721c-2.743 2.743-.076 12.014 2.923 10.16.574-.355 1.044-.382 1.044-.061s-1.152 1.022-2.56 1.557c-2.953 1.122-2.38 2.977.919 2.977 3.646 0 4.641-1.937 4.641-9.033v-6.634h-2.967c-1.631 0-3.431.465-4 1.034M148 43c-2.496 2.496-2.571 6.173-.171 8.345 2.28 2.064 5.171 2.15 5.171.155 0-.825-.675-1.5-1.5-1.5-.938 0-1.5-.948-1.5-2.531 0-1.393.675-2.791 1.5-3.107.825-.317 1.5-1.203 1.5-1.969 0-2.03-2.69-1.703-5 .607m6.655-.171c-2.09 2.31-2.132 6.551-.084 8.6 2.061 2.06 3.745 1.985 5.774-.258 2.074-2.292 2.109-5.078.098-7.948-1.892-2.702-3.595-2.817-5.788-.394M163 47.178c0 4.508.338 5.822 1.5 5.822 1.083 0 1.5-1.111 1.5-4 0-2.2.45-4 1-4s1 1.8 1 4c0 2.889.417 4 1.5 4s1.5-1.111 1.5-4c0-2.2.45-4 1-4s1 1.8 1 4c0 2.889.417 4 1.5 4 1.92 0 2.142-9.484.25-10.657-.687-.426-3.613-.823-6.5-.881l-5.25-.106v5.822M157.232 47c0 1.925.206 2.712.457 1.75.252-.962.252-2.538 0-3.5-.251-.962-.457-.175-.457 1.75M100 47c0 1.1.45 2 1 2s1-.9 1-2-.45-2-1-2-1 .9-1 2m42.238 2.162c-1.362 1.362-.479 3.838 1.369 3.838 1.498 0 1.943-3.542.553-4.401-.462-.286-1.327-.032-1.922.563M71.617 59.811c-.276.445-3.902 8.571-8.059 18.057C56.911 93.035 56 95.835 56 101.097c0 7.302 2.331 12.319 7.966 17.141L68 121.692v67.155l2.703 3.212c5.038 5.987 4.592 5.941 57.864 5.941 53.74 0 53.107.07 57.703-6.373 2.185-3.064 2.236-3.806 2.519-36.608l.289-33.481 3.948-3.794c5.097-4.898 7.012-8.709 7.694-15.316.521-5.055.094-6.385-7.834-24.363L184.5 59.05l-56.191-.025c-30.905-.014-56.416.34-56.692.786m2.228 18.69L69.19 89H187.027l-1.382-3.25c-.759-1.787-2.851-6.513-4.647-10.5L177.732 68l-49.616.001-49.616.002-4.655 10.498m-8.178 20.166c-1.129 1.128-.744 4.369.939 7.916 2.245 4.731 6.999 7.417 13.127 7.417 6.031 0 8.912-1.969 12.343-8.437 1.331-2.51 2.646-4.563 2.922-4.562.276.001 1.736 2.197 3.243 4.882 3.146 5.6 7.396 8.117 13.71 8.117 5.7 0 9.314-2.127 12.687-7.466 1.574-2.492 3.163-4.531 3.53-4.532.368-.001 1.631 1.554 2.806 3.456 3.756 6.078 7.55 8.542 13.152 8.542 6.673 0 10.346-2.111 13.997-8.045 1.676-2.725 3.207-4.955 3.4-4.955.194 0 1.596 2.285 3.116 5.079 3.181 5.843 6.48 7.923 12.561 7.917 7.678-.006 13.8-5.75 13.8-12.946V98h-62.333c-34.284 0-62.634.3-63 .667m24.388 22.573c-3.127 1.633-6.87 2.76-9.169 2.76H77v30.066c0 18.812.387 30.789 1.035 32 .948 1.77 2.217 1.934 15 1.934H107v-51.04l21.25.27 21.25.27V188.001l13.55-.001c9.205 0 13.935-.385 14.75-1.2.881-.881 1.2-9.378 1.2-32V124h-3.532c-3.938 0-9.957-2.227-12.681-4.693-1.646-1.489-1.929-1.489-3.587.012-2.733 2.473-9.895 4.681-15.185 4.681-3.241 0-6.557-.92-10.519-2.918l-5.786-2.919-3.856 2.552c-2.879 1.905-5.567 2.668-10.605 3.008-5.956.402-7.405.12-12.33-2.394l-5.581-2.849-5.283 2.76M.079 128.583c.048 1.165.285 1.402.604.605.289-.722.253-1.585-.079-1.917-.332-.332-.568.258-.525 1.312m116.15 37.985l.271 19.568 11.75.182 11.75.182V147h-24.042l.271 19.568M89 210c0 6.444.292 8 1.5 8s1.5-1.556 1.5-8-.292-8-1.5-8-1.5 1.556-1.5 8m10-5.57c0 1.752-.623 2.52-2.23 2.75-2.96.425-4.541 4.832-2.97 8.28.92 2.02 1.878 2.54 4.679 2.54H102v-8c0-6.444-.292-8-1.5-8-.922 0-1.5.937-1.5 2.43m37.688-1.784c-.379.378-.688 1.512-.688 2.521 0 1.37-.758 1.833-3 1.833-2.97 0-3 .056-3 5.5 0 4.12.361 5.5 1.44 5.5.935 0 1.548-1.287 1.75-3.673.445-5.275 2.81-5.621 2.81-.41 0 3.357.341 4.083 1.917 4.083 1.054 0 2.143-.562 2.421-1.25.403-1 .52-1 .583 0 .043.688.956 1.25 2.028 1.25 1.822 0 1.858-.217.55-3.349-1.231-2.945-1.206-3.625.211-5.647 1.568-2.239 1.542-2.285-.998-1.8-2.203.421-2.655.107-2.91-2.026-.305-2.547-1.846-3.8-3.114-2.532m34.062.104c-.202.412-.312 3.899-.244 7.749.101 5.707.435 7.058 1.809 7.323 1.468.283 1.685-.716 1.685-7.749 0-6.362-.305-8.073-1.441-8.073-.793 0-1.606.338-1.809.75m-112.183 3c.284 1.512.847 4.771 1.251 7.241.942 5.763 3.859 6.86 4.873 1.834l.67-3.325.865 3.315c1.451 5.563 3.961 3.792 5.412-3.819.681-3.573 1.266-6.834 1.3-7.246.034-.412-.838-.75-1.938-.75-1.63 0-2.015.693-2.079 3.75-.082 3.874-.316 3.701-1.353-1-.862-3.911-3.033-3.402-4.265 1l-1.05 3.75-.127-3.75c-.102-3.025-.508-3.75-2.101-3.75-1.613 0-1.88.504-1.458 2.75m49.134-2.118c-.385.386-.701 3.776-.701 7.535 0 5.407.313 6.833 1.5 6.833.946 0 1.537-1.017 1.6-2.75l.099-2.75.696 2.5c.956 3.439 3.448 3.144 4.227-.5l.641-3 .119 3.25c.079 2.17.617 3.25 1.618 3.25 1.2 0 1.5-1.5 1.5-7.5 0-6.692-.204-7.5-1.893-7.5-2.021 0-3.107 1.846-3.107 5.282 0 2.813-1.725 1.004-2.165-2.272-.326-2.419-2.717-3.795-4.134-2.378M155 205.417c0 .779-.562 1.606-1.25 1.837-.96.323-.979.75-.082 1.837.643.78 1.318 2.99 1.5 4.913.26 2.74.819 3.565 2.582 3.816 1.513.214 2.25-.195 2.25-1.25 0-.864-.45-1.57-1-1.57-1.452 0-1.229-5.726.25-6.417 1-.466 1-.7 0-1.166-.687-.321-1.25-1.221-1.25-2 0-.78-.675-1.417-1.5-1.417s-1.5.637-1.5 1.417m-80.904 2.967c-1.696 2.044-.975 7.677 1.154 9.01 3.025 1.894 5.25-.437 5.25-5.503 0-3.978-.243-4.419-2.586-4.692-1.422-.165-3.14.368-3.818 1.185M82 212.5c0 4.833.242 5.5 2 5.5 1.613 0 2-.667 2-3.441 0-1.893.45-3.719 1-4.059 2.193-1.355.968-3.5-2-3.5-2.97 0-3 .056-3 5.5m39-3.893c0 1.002.553 1.395 1.468 1.044.807-.31 1.734-.133 2.059.393.325.526-.055.956-.846.956-2.2 0-3.922 2.666-3.196 4.952.51 1.608 1.497 2.048 4.594 2.048h3.945l-.596-4.25c-.896-6.403-1.123-6.75-4.397-6.75-2.117 0-3.031.484-3.031 1.607m25.2-.407c-1.663 1.663-1.505 7.302.245 8.754 1.666 1.383 6.148 1.035 5.864-.454-.105-.55-1.23-1.293-2.5-1.65-2.17-.612-2.144-.657.441-.75 2.814-.102 3.522-1.925 2.143-5.518-.715-1.864-4.479-2.096-6.193-.382m14.8 6.24c0 6.053.299 7.56 1.5 7.56.825 0 1.5-.869 1.5-1.93 0-1.22.803-2.048 2.183-2.25 2.485-.364 3.792-3.952 2.848-7.82-.494-2.025-1.314-2.559-4.32-2.81l-3.711-.311v7.561m15-5.896c0 1.074.536 1.464 1.5 1.094.825-.316 1.5-.192 1.5.277 0 .468-.933 1.096-2.074 1.394-1.592.416-1.998 1.198-1.75 3.367.285 2.48.787 2.862 4.128 3.138l3.805.313-.305-5.313c-.297-5.191-.379-5.321-3.554-5.627-2.495-.241-3.25.075-3.25 1.357m9.571.027c-3.147 3.148-1.173 9.429 2.964 9.429 1.524 0 2.465-.572 2.465-1.5 0-.825-.675-1.5-1.5-1.5-.933 0-1.5-.944-1.5-2.5s.567-2.5 1.5-2.5c.825 0 1.5-.675 1.5-1.5 0-1.97-3.432-1.925-5.429.071m6.229.969c-1.848 4.055-.01 7.888 3.968 8.273 3.809.37 4.682-2.395.982-3.107l-2.25-.434 2.281-.136c2.798-.167 3.745-2.285 2.261-5.058-1.609-3.006-5.783-2.74-7.242.462M76 212.5c0 1.375.45 2.5 1 2.5s1-1.125 1-2.5-.45-2.5-1-2.5-1 1.125-1 2.5m21 .059c0 1.407.408 2.307.906 1.999.498-.308.671-1.46.383-2.559-.719-2.752-1.289-2.504-1.289.56m67-.059c0 1.375.45 2.5 1 2.5s1-1.125 1-2.5-.45-2.5-1-2.5-1 1.125-1 2.5m-40.5 1.5c-.34.55-.141 1 .441 1s1.059-.45 1.059-1-.198-1-.441-1-.719.45-1.059 1m54.5 0c0 .55.45 1 1 1s1-.45 1-1-.45-1-1-1-1 .45-1 1" fill="#1976D2" fill-rule="evenodd"/></svg>